<svg id="Layer_1" data-name="Layer 1" xmlns="http://www.w3.org/2000/svg" viewBox="0 0 3000 2000"><defs><style>.cls-1,.cls-8{fill:#fff;}.cls-19,.cls-2,.cls-22{fill:none;}.cls-2{stroke:#e4e4e4;stroke-width:4px;stroke-dasharray:32.09 32.09;}.cls-19,.cls-2,.cls-22,.cls-8{stroke-miterlimit:10;}.cls-3{fill:#f6f5f5;}.cls-4{fill:#a9bae6;}.cls-5{fill:#e4e4e4;}.cls-6{fill:#708cd5;}.cls-7{fill:#d3dfff;}.cls-8{stroke:#708cd5;stroke-width:6px;}.cls-9{fill:#ee6f57;}.cls-10{fill:#f9b384;}.cls-11,.cls-15{fill:#1f3c88;}.cls-12,.cls-16{fill:#e28b6d;}.cls-13,.cls-14{fill:#102048;}.cls-14,.cls-16,.cls-21{opacity:0.6;}.cls-15,.cls-19{opacity:0.3;}.cls-17,.cls-21{fill:#6f3428;}.cls-18{fill:#fbc343;}.cls-19{stroke:#6f3428;}.cls-19,.cls-22{stroke-width:8px;}.cls-20{fill:#fc8879;opacity:0.4;}.cls-22{stroke:#102048;}</style></defs><rect class="cls-1" width="3000" height="2000"/><path class="cls-2" d="M2712,1308c125.27,224.17-56,664-1205.64,358.33-576.41-153.26-1007,192-1095.69-49C204,1056,1048,406.67,1517.33,860,1946.33,1274.37,2484,900,2712,1308Z"/><path class="cls-3" d="M2705.4,1801.44H361.32c73.36-542,570.08-961.24,1172-961.24S2632,1259.44,2705.4,1801.44Z"/><rect class="cls-4" x="1443.84" y="383.32" width="1030.33" height="1413.36" rx="74.32"/><rect class="cls-3" x="1536.96" y="440.28" width="848.04" height="1231.88"/><path class="cls-5" d="M2385,440.29c.26,480.36,15.77,1059.71-38.19,1188-237.66,23.16-515.95,30.59-809.86,32L1648.67,444Z"/><path class="cls-1" d="M2308.83,1589.45c-370.44,59.29-618,62.42-818.83,47.51,26-277,36.46-737.18,47-1196.62l446.39,1,404,26.67C2393.22,944.85,2393.87,1385.32,2308.83,1589.45Z"/><rect class="cls-6" x="1730.96" y="559.13" width="446.24" height="67.97" transform="translate(14.5 -45.81) rotate(1.35)"/><rect class="cls-6" x="1861.12" y="725.94" width="402.51" height="31.11" transform="translate(18.02 -48.32) rotate(1.35)"/><rect class="cls-7" x="1859.54" y="792.24" width="273.59" height="31.11" transform="translate(19.56 -46.75) rotate(1.35)"/><rect class="cls-8" x="1638.35" y="718.92" width="95.29" height="95.29" transform="translate(18.5 -39.46) rotate(1.35)"/><path class="cls-9" d="M1655,742.87c2.94,11.26,8.37,58.43,32,45.24,5.45-3,10.06-11.08,14.14-15.71l22-24.94,43.94-49.9c3.76-4.26-12.82-14.95-17.53-9.6l-39.06,44.35-19.53,22.18c-4.52,5.13-15,21.67-21.67,23.14l10.93,3.53c2.58,2.11-2.21-12.87-2.32-13.28q-2.71-10.43-5.45-20.87c-1.5-5.74-19.63-12.65-17.41-4.14Z"/><rect class="cls-6" x="1857.06" y="898.29" width="331.46" height="31.11" transform="translate(22.06 -47.34) rotate(1.35)"/><rect class="cls-7" x="1855.45" y="966.94" width="402.51" height="31.11" transform="matrix(1, 0.02, -0.02, 1, 23.69, -48.12)"/><rect class="cls-8" x="1634.27" y="892.11" width="95.29" height="95.29" transform="translate(22.58 -39.31) rotate(1.35)"/><path class="cls-9" d="M1650.87,918.75c2.94,11.26,8.37,58.43,32,45.24,5.45-3,10.06-11.08,14.14-15.71l22-24.95,43.94-49.89c3.76-4.26-12.82-15-17.53-9.6l-39.06,44.35-19.53,22.17c-4.52,5.13-15,21.68-21.67,23.15l10.93,3.53c2.58,2.11-2.21-12.87-2.31-13.28q-2.73-10.43-5.45-20.87c-1.51-5.74-19.64-12.65-17.42-4.14Z"/><rect class="cls-6" x="1852.97" y="1072.32" width="402.51" height="31.11" transform="translate(26.16 -48.03) rotate(1.35)"/><rect class="cls-7" x="1851.4" y="1137.52" width="180.01" height="31.11" transform="translate(27.67 -45.36) rotate(1.35)"/><rect class="cls-8" x="1630.2" y="1065.3" width="95.29" height="95.29" transform="translate(26.65 -39.17) rotate(1.35)"/><path class="cls-9" d="M1648.09,1093.17c2.94,11.26,8.37,58.43,32,45.24,5.45-3,10.06-11.08,14.13-15.71l22-24.94,43.94-49.9c3.76-4.26-12.82-14.95-17.53-9.6l-39.07,44.35L1684,1104.79c-4.52,5.13-15,21.67-21.67,23.14l10.94,3.53c2.57,2.11-2.21-12.87-2.32-13.28q-2.71-10.42-5.45-20.87c-1.5-5.74-19.64-12.65-17.41-4.14Z"/><rect class="cls-6" x="1848.89" y="1245.51" width="402.51" height="31.11" transform="matrix(1, 0.02, -0.02, 1, 30.24, -47.89)"/><rect class="cls-7" x="1847.31" y="1312.33" width="317.97" height="31.11" transform="translate(31.8 -46.84) rotate(1.35)"/><rect class="cls-8" x="1626.12" y="1238.49" width="95.29" height="95.29" transform="translate(30.72 -39.03) rotate(1.35)"/><path class="cls-9" d="M1644,1265.23c2.94,11.26,8.37,58.42,32,45.23,5.45-3,10.06-11.08,14.13-15.7l22-25,43.94-49.89c3.76-4.26-12.82-15-17.53-9.6l-39.07,44.35L1680,1276.84c-4.52,5.13-15,21.68-21.67,23.14l10.94,3.53c2.58,2.12-2.21-12.86-2.32-13.27q-2.72-10.44-5.45-20.87c-1.5-5.75-19.64-12.66-17.41-4.14Z"/><rect class="cls-6" x="1844.88" y="1414.53" width="159.55" height="31.11" transform="translate(34.18 -44.89) rotate(1.35)"/><path class="cls-7" d="M2246.07,1490l-402.4-9.47-.73,31.1c155.68,3.65,353.91,10.94,394.36,4.74C2243.44,1509.34,2246.75,1500.77,2246.07,1490Z"/><rect class="cls-8" x="1623.41" y="1410.4" width="95.29" height="95.29" transform="translate(34.77 -38.91) rotate(1.35)"/><path class="cls-9" d="M1640,1435.78c3,11.26,8.38,58.42,32,45.23,5.44-3,10.06-11.08,14.13-15.7l22-25,44-49.89c3.75-4.27-12.82-15-17.54-9.61l-39.06,44.35-19.53,22.18c-4.52,5.13-15,21.67-21.67,23.14l10.94,3.53c2.57,2.12-2.21-12.87-2.32-13.27q-2.73-10.44-5.45-20.87c-1.5-5.75-19.64-12.66-17.42-4.14Z"/><path class="cls-9" d="M2150,391.88V487H1768V391.88A54.88,54.88,0,0,1,1784.08,353a45.49,45.49,0,0,1,3.88-3.48,54.52,54.52,0,0,1,35-12.6,64.68,64.68,0,0,0,28.08-6.4,67.27,67.27,0,0,0,10.56-6.36A64.64,64.64,0,0,0,1885,291a64.91,64.91,0,0,1,62.08-46h23.84A64.91,64.91,0,0,1,2033,291a64.64,64.64,0,0,0,23.44,33.24,67.27,67.27,0,0,0,10.56,6.36,64.68,64.68,0,0,0,28.08,6.4A55,55,0,0,1,2150,391.88Z"/><polygon class="cls-5" points="2181 440.28 2181 510.96 1737 510.96 1737 440.28 1768 440.28 1768 486.96 2150 486.96 2150 440.28 2181 440.28"/><ellipse class="cls-1" cx="1959.01" cy="301.95" rx="33.88" ry="32.2"/><path class="cls-10" d="M1226.92,747.09c-13.55-2.56-26.21-25.2-30.61-33.88a10.8,10.8,0,0,1-1-6.89l5.4-28.58s12.44,2.11,11.48,18.68a12.31,12.31,0,0,0,.86,5.05l4.77,12.46,14.08-10.9-7.72-21.81s-10.34,2.84-15.68,1.14c-11-3.5,3.41-12,8-13s14.54-4.54,19.08,3.18,7.27,12.27,7.27,12.27,5-17.27,1.59-55.88c-.15-1.74,4.2-1.7,5.42-.45,3.66,3.72,9.49,15.05,9.8,49.51,0,0,.61-40.16,7.49-44.29,5.68-3.41,8.55,16.25,4.55,49.58,0,0,7.41-28.86,12.72-28.91,8.95-.09.11,77.08-22.39,100.08Z"/><path class="cls-10" d="M1269.4,735.28q-.6,5.76-1.32,11.16v0a324.27,324.27,0,0,1-5.92,34c-.12.48-.2.92-.32,1.36-6.84,28-8.08,41.76-31.44,38.08l-24-27.36-.24-.28-1.76-2,4.88-14.4.64-1.88,3.6-10.48.44-1.36,6.16-18,2.48-7.32Z"/><path class="cls-11" d="M822.79,1731.54l-6.12,19.13c-42,13.78-66.43,29.57-68,48H870l9.73-64C855.16,1740.63,835.46,1736.46,822.79,1731.54Z"/><path class="cls-10" d="M838,1684l-15.21,47.54c12.67,4.92,32.37,9.09,56.94,3.09l6.27-41.3Z"/><path class="cls-10" d="M1045.44,1729.42,1049,1681l-57,3-3.11,44.64C1013,1736.33,1033,1733.32,1045.44,1729.42Z"/><path class="cls-11" d="M1114,1798.67c-1.57-18.43-23-43.67-70-49.67l1.44-19.58c-12.47,3.9-32.42,6.91-56.55-.78l-4.89,70Z"/><polygon class="cls-10" points="999.24 759.52 930.48 760 930.48 656 997.16 656 997.2 662.36 997.52 695.32 998 748.24 999.24 759.52"/><path class="cls-12" d="M997.52,700.32c-12.36,13-44.6-1.68-58.2-16l57.88-17Z"/><path class="cls-10" d="M1013.48,632a148.73,148.73,0,0,1-1.8,23.4c-3.36,21-12.24,39.08-32.72,39.64-48.4,1.4-62.2-26.28-71.32-48.92s5.68-77.2,5.68-77.2l62.64-6.2,34.4,28.2A256.64,256.64,0,0,1,1013.48,632Z"/><path class="cls-13" d="M909.59,633.15s13.81-.63,16.17-36.27c24.69,8.26,42.74.73,57-15.72,12.2,16.11,46.35,21.16,57.88-11.83C1049,545.5,1026,510,992.5,531.5c-32.83-16.59-82.63-15.45-97,25.24,0,0-49.81,23,2.94,73.54C899.53,631.29,909.59,633.15,909.59,633.15Z"/><polygon class="cls-13" points="1100.01 1133.3 1062 1708 972.67 1708 995 1150.33 1008.67 1144 1100.01 1133.3"/><polygon class="cls-11" points="867.34 1054.67 804.67 1708 902 1708 994.67 1165.33 1100 1133.33 1104.67 1017.33 870 1012 867.34 1054.67"/><path class="cls-14" d="M881.31,1056.09c53.16,19.09,177.89-2.72,203.79-29.31L1066.7,990l-205.16,27.26Z"/><path class="cls-1" d="M1080.32,1017.92c-1.72.72-3.48,1.48-5.28,2.16a361.08,361.08,0,0,1-66.64,19.84,305.83,305.83,0,0,1-44.68,5.48,258.17,258.17,0,0,1-70.16-5.68l29.8-277.84L927,728s39,48,82-5Z"/><path class="cls-15" d="M963.72,1045.4a258.17,258.17,0,0,1-70.16-5.68l29.8-277.84L934,746.5C960.28,810.42,987.2,952,963.72,1045.4Z"/><path class="cls-6" d="M930.5,717c29.63,125.8,41.82,255.25-1.83,399-32.37,12.31-67.62,12.17-105.33,1.33L832.67,856,613,1007l-13.33-82.33C684.11,843.93,830.11,722,930.5,717Z"/><path class="cls-15" d="M1075,1020.08a361.08,361.08,0,0,1-66.64,19.84C995.16,964,992.24,839.28,1003,783Z"/><path class="cls-16" d="M1262.16,780.52c-.12.48-.2.92-.32,1.36-6.84,28-8.08,41.76-31.44,38.08l-24-27.36-.24-.28,3.12-16.4.64-1.88,3.6-10.48.44-1.36Z"/><path class="cls-6" d="M1258,806s-59,125-94,128c-33.93,2.91-50-30-50-30l24,182.68c-28.2,13.2-59,19.64-94.68,13.32-31.72-103-43.71-236.18-46.07-384.5,25.68,1.6,76.54,3.79,94.75,15.5,32.67,21,73,96,73,96l47-64Z"/><path class="cls-17" d="M538.74,629.87s3.57-59.79,9.66-57,18.29,54.82,18.29,54.82l-13.05,21.06Z"/><path class="cls-9" d="M718.3,1709.67l1.77,19.68a63.17,63.17,0,0,1-57.26,68.56l-5.06.45a63.15,63.15,0,0,1-68.55-57.25l-1.77-19.68Z"/><rect class="cls-18" x="544.35" y="760.67" width="131.4" height="956.8" transform="translate(-108.43 59.56) rotate(-5.13)"/><rect class="cls-19" x="579.71" y="741.79" width="46.67" height="838.67" transform="translate(-101.48 58.62) rotate(-5.13)"/><polygon class="cls-13" points="718.28 1709.68 587.44 1721.44 584 1683.04 581.6 1656.36 574.2 1574.36 705.08 1562.6 712.44 1644.6 714.84 1671.28 718.28 1709.68"/><rect class="cls-18" x="582.54" y="1650.43" width="131.37" height="26.79" transform="translate(-146.34 64.71) rotate(-5.14)"/><path class="cls-9" d="M501.79,768.47l36.36-145.7s12.54,5.57,27.76-3.83l66.77,137.77Z"/><path class="cls-10" d="M916.83,627.12c-.58-2.15-10.35-5.1-12.5-5.69-3.33-.92-7-1.38-10.2.09-11.81,5.34-10.23,22.25-4.11,31.14a26.63,26.63,0,0,0,14.44,10.6c2.15.61,22.46.86,21.57-2.41Z"/><path class="cls-10" d="M545,967a17.78,17.78,0,0,0-22.72-11.74c-14.89,5.14-27.86,13.86-29.87,28.7-1.83,13.51,4.93,56.66,35.11,62.21L525.06,1024s18.48-4.31,22.17-12.32C549.82,1006.07,550,982.66,545,967Z"/><path class="cls-11" d="M1104.78,818.58c1.59,9.44,2.94,18.91,4.23,28.39s2.41,19,3.63,28.47l3.1,28.52c.9,9.53,1.79,19,2.37,28.62l-1.55.18c-1.64-9.44-3-18.91-4.29-28.39l-3.57-28.47c-1-9.52-2.16-19-3-28.54s-1.8-19.05-2.43-28.6Z"/><path class="cls-11" d="M835.78,817c0,10.6-.28,21.2-.59,31.79S834.38,870,834,880.59l-1.73,31.74c-.71,10.58-1.44,21.15-2.47,31.71l-1.56-.08c0-10.61.25-21.2.54-31.79L830,880.41c.61-10.58,1.06-21.17,1.8-31.74s1.42-21.15,2.4-31.71Z"/><path class="cls-13" d="M965.38,626.13c.84,3.77-.71,7.33-3.47,8s-5.69-1.94-6.53-5.71.71-7.33,3.47-8S964.53,622.36,965.38,626.13Z"/><path class="cls-13" d="M1005.25,621.47c-.17,3.86-2.59,6.89-5.42,6.77s-5-3.34-4.82-7.21,2.59-6.89,5.41-6.77S1005.41,617.6,1005.25,621.47Z"/><path class="cls-12" d="M983,624.63c1.37,3.31,1.15,6.87,2,9.58a7.51,7.51,0,0,0,1.93,3.33,12.61,12.61,0,0,0,3.76,1.84,10.5,10.5,0,0,1,4.74,3.57,6.22,6.22,0,0,1,.48,6.55,12.18,12.18,0,0,1-3.91,4c-1.37.93-2.69,1.91-4.12,2.78l-1-1.18c1.05-1.29,2.2-2.47,3.3-3.7a11.9,11.9,0,0,0,2.59-3.37c.84-1.85-1-3.88-3.6-4.92-1.35-.62-3.3-1.16-4.87-2.77a9.73,9.73,0,0,1-2.57-5.29c-.66-3.7.1-6.87-.26-10Z"/><path class="cls-13" d="M946.29,616a11.65,11.65,0,0,1,4.09-6.23,12.4,12.4,0,0,1,7.25-2.72,13.41,13.41,0,0,1,12.61,7.09l-1.22,1a17.24,17.24,0,0,0-11.2-4.08,13.06,13.06,0,0,0-10.11,5.63Z"/><path class="cls-13" d="M987.58,611.1a12,12,0,0,1,3.14-5.05,10.46,10.46,0,0,1,5.68-2.81c4.29-.71,8.91,1.48,10.6,5.29l-1.25.94a12.64,12.64,0,0,0-8.77-2.29,11.15,11.15,0,0,0-4.17,1.52,27.47,27.47,0,0,0-3.88,3.2Z"/><path class="cls-1" d="M965.45,663.37c7,10.93,16.29,12.12,23.48.62Z"/><path class="cls-20" d="M1013.67,629.33a184.53,184.53,0,0,1-2,26.07,12,12,0,0,1-8.36-11.48C1003.32,637.88,1008,630.25,1013.67,629.33Z"/><circle class="cls-20" cx="948.4" cy="651.07" r="12.9"/><path class="cls-12" d="M908.38,640a66.29,66.29,0,0,0-7.21-4.75,6.4,6.4,0,0,0-3.18-.82,7.11,7.11,0,0,0-3.33,1.52l-1.31-.84a6.21,6.21,0,0,1,3.8-4.09,7.39,7.39,0,0,1,5.78.67,15,15,0,0,1,6.7,7.37Z"/><path class="cls-21" d="M547.23,1011.67l-18.56,56.41L524.83,1024C536.37,1021.49,542.67,1016.87,547.23,1011.67Z"/><line class="cls-22" x1="240.42" y1="1799.03" x2="2826.3" y2="1799.03"/></svg>