<svg xmlns="http://www.w3.org/2000/svg" xmlns:xlink="http://www.w3.org/1999/xlink" width="100" zoomAndPan="magnify" viewBox="0 0 75 30.000001" height="40" preserveAspectRatio="xMidYMid meet" version="1.0"><defs><g/></defs><g fill="#000000" fill-opacity="1"><g transform="translate(4.791262, 22.747521)"><g><path d="M 1.5625 -8.921875 C 1.863281 -9.941406 2.109375 -10.734375 2.296875 -11.296875 C 2.492188 -11.859375 2.6875 -12.359375 2.875 -12.796875 C 3.0625 -13.242188 3.269531 -13.671875 3.5 -14.078125 C 3.738281 -14.492188 4 -14.875 4.28125 -15.21875 C 4.570312 -15.570312 4.875 -15.847656 5.1875 -16.046875 C 5.507812 -16.242188 5.847656 -16.34375 6.203125 -16.34375 C 6.554688 -16.34375 6.925781 -16.203125 7.3125 -15.921875 C 7.925781 -14.390625 8.300781 -13.363281 8.4375 -12.84375 C 8.625 -12.082031 8.789062 -11.003906 8.9375 -9.609375 C 9.070312 -9.960938 9.226562 -10.332031 9.40625 -10.71875 C 9.582031 -11.113281 9.753906 -11.507812 9.921875 -11.90625 C 10.398438 -12.914062 10.703125 -13.679688 10.828125 -14.203125 C 11.160156 -15.273438 11.859375 -16.082031 12.921875 -16.625 C 13.835938 -17.082031 14.691406 -17.222656 15.484375 -17.046875 C 15.804688 -16.992188 16.03125 -16.863281 16.15625 -16.65625 C 16.289062 -16.457031 16.289062 -16.25 16.15625 -16.03125 C 16.03125 -15.820312 15.988281 -15.617188 16.03125 -15.421875 C 16.070312 -15.234375 16.109375 -15.007812 16.140625 -14.75 C 16.179688 -14.050781 16.054688 -13.425781 15.765625 -12.875 C 15.472656 -12.332031 15.171875 -11.660156 14.859375 -10.859375 C 14.554688 -10.054688 14.25 -9.203125 13.9375 -8.296875 C 13.625 -7.390625 13.304688 -6.46875 12.984375 -5.53125 C 12.660156 -4.601562 12.347656 -3.753906 12.046875 -2.984375 C 11.367188 -1.222656 10.816406 -0.25 10.390625 -0.0625 C 9.804688 0.28125 9.378906 0.484375 9.109375 0.546875 C 8.753906 0.609375 8.253906 0.609375 7.609375 0.546875 C 7.210938 0.515625 6.867188 0.00390625 6.578125 -0.984375 C 6.410156 -1.523438 6.253906 -2.269531 6.109375 -3.21875 C 5.867188 -4.875 5.703125 -5.785156 5.609375 -5.953125 C 4.992188 -3.960938 4.5625 -2.707031 4.3125 -2.1875 C 4.0625 -1.664062 3.867188 -1.316406 3.734375 -1.140625 C 3.609375 -0.972656 3.453125 -0.753906 3.265625 -0.484375 C 3.066406 0.0664062 2.59375 0.472656 1.84375 0.734375 C 1.195312 0.984375 0.613281 1.019531 0.09375 0.84375 C -0.476562 0.664062 -0.644531 0.316406 -0.40625 -0.203125 C -0.238281 -2.046875 0.414062 -4.953125 1.5625 -8.921875 Z M 1.5625 -8.921875 "/></g></g><g transform="translate(19.266956, 22.747521)"><g><path d="M 4.671875 -15.21875 C 5.628906 -16.320312 6.703125 -17.007812 7.890625 -17.28125 C 8.703125 -17.476562 9.46875 -17.445312 10.1875 -17.1875 C 10.75 -17.789062 11.484375 -18.003906 12.390625 -17.828125 C 13.210938 -17.679688 13.914062 -17.21875 14.5 -16.4375 C 14.53125 -16.320312 14.59375 -16.15625 14.6875 -15.9375 C 14.789062 -15.726562 14.890625 -15.492188 14.984375 -15.234375 C 15.660156 -13.671875 15.710938 -11.617188 15.140625 -9.078125 C 14.441406 -5.921875 13.195312 -3.25 11.40625 -1.0625 C 10.851562 -0.382812 10.226562 0.175781 9.53125 0.625 C 8.4375 1.46875 7.117188 1.84375 5.578125 1.75 C 4.628906 1.695312 3.832031 1.457031 3.1875 1.03125 C 0.632812 -0.238281 -0.195312 -2.890625 0.6875 -6.921875 C 1.425781 -10.234375 2.753906 -13 4.671875 -15.21875 Z M 4.9375 -3.015625 L 4.921875 -2.875 L 4.96875 -2.625 C 5.0625 -2.144531 5.210938 -1.78125 5.421875 -1.53125 C 5.640625 -1.28125 5.816406 -1.125 5.953125 -1.0625 C 6.109375 -1.175781 6.257812 -1.285156 6.40625 -1.390625 C 6.5625 -1.503906 6.703125 -1.640625 6.828125 -1.796875 C 7.867188 -3.078125 8.679688 -4.757812 9.265625 -6.84375 C 9.847656 -8.925781 10.0625 -10.859375 9.90625 -12.640625 C 9.3125 -11.867188 8.679688 -10.984375 8.015625 -9.984375 C 7.359375 -8.992188 6.835938 -8.148438 6.453125 -7.453125 C 5.585938 -5.804688 5.082031 -4.328125 4.9375 -3.015625 Z M 4.9375 -3.015625 "/></g></g><g transform="translate(33.949445, 22.747521)"><g><path d="M 8 -5.890625 C 7.582031 -4.691406 7.160156 -3.539062 6.734375 -2.4375 C 6.304688 -1.332031 5.945312 -0.492188 5.65625 0.078125 C 5.375 0.648438 5.125 1.039062 4.90625 1.25 C 4.695312 1.46875 4.484375 1.613281 4.265625 1.6875 C 4.046875 1.769531 3.820312 1.800781 3.59375 1.78125 C 3.375 1.769531 3.148438 1.757812 2.921875 1.75 C 1.628906 1.550781 1.226562 0.625 1.71875 -1.03125 C 2.039062 -2.351562 2.300781 -3.429688 2.5 -4.265625 C 2.695312 -5.097656 2.859375 -5.785156 2.984375 -6.328125 C 3.117188 -6.867188 3.234375 -7.320312 3.328125 -7.6875 C 3.421875 -8.050781 3.519531 -8.40625 3.625 -8.75 C 3.738281 -9.101562 3.875 -9.503906 4.03125 -9.953125 C 4.195312 -10.398438 4.410156 -10.988281 4.671875 -11.71875 C 4.085938 -11.644531 3.566406 -11.707031 3.109375 -11.90625 C 2.429688 -12.195312 2.15625 -12.828125 2.28125 -13.796875 C 2.34375 -14.234375 2.578125 -14.644531 2.984375 -15.03125 C 3.203125 -15.226562 3.457031 -15.441406 3.75 -15.671875 C 4.34375 -16.148438 5.53125 -16.65625 7.3125 -17.1875 C 9.144531 -17.738281 10.722656 -18 12.046875 -17.96875 C 12.398438 -18.03125 12.765625 -17.988281 13.140625 -17.84375 C 13.515625 -17.695312 13.816406 -17.5 14.046875 -17.25 C 14.273438 -17.007812 14.390625 -16.742188 14.390625 -16.453125 C 14.398438 -16.160156 14.21875 -15.898438 13.84375 -15.671875 C 13.65625 -15.546875 13.519531 -15.34375 13.4375 -15.0625 C 13.363281 -14.78125 13.28125 -14.484375 13.1875 -14.171875 C 13.101562 -13.859375 12.972656 -13.570312 12.796875 -13.3125 C 12.617188 -13.050781 12.335938 -12.894531 11.953125 -12.84375 C 11.753906 -12.738281 11.472656 -12.660156 11.109375 -12.609375 C 10.753906 -12.566406 10.519531 -12.535156 10.40625 -12.515625 C 10.289062 -12.492188 10.222656 -12.453125 10.203125 -12.390625 C 9.929688 -11.578125 9.601562 -10.59375 9.21875 -9.4375 C 8.832031 -8.28125 8.425781 -7.097656 8 -5.890625 Z M 4.890625 -11.96875 C 4.859375 -11.96875 4.84375 -11.960938 4.84375 -11.953125 C 4.84375 -11.953125 4.859375 -11.953125 4.890625 -11.953125 Z M 4.890625 -11.96875 "/></g></g><g transform="translate(45.484046, 22.747521)"><g><path d="M 5.1875 -2.890625 C 6.082031 -2.804688 6.75 -2.765625 7.1875 -2.765625 C 7.625 -2.765625 8.285156 -2.820312 9.171875 -2.9375 C 9.441406 -2.84375 9.597656 -2.726562 9.640625 -2.59375 C 9.691406 -2.457031 9.707031 -2.316406 9.6875 -2.171875 C 9.675781 -2.023438 9.6875 -1.882812 9.71875 -1.75 C 9.75 -1.613281 9.894531 -1.5 10.15625 -1.40625 C 10.289062 -1.351562 10.332031 -1.21875 10.28125 -1 C 10.226562 -0.78125 10.101562 -0.539062 9.90625 -0.28125 C 9.394531 0.382812 8.796875 0.847656 8.109375 1.109375 C 7.003906 1.378906 6.140625 1.535156 5.515625 1.578125 C 4.472656 1.660156 3.335938 1.625 2.109375 1.46875 C 0.765625 1.226562 0.113281 0.671875 0.15625 -0.203125 C 0.15625 -3.421875 0.863281 -6.65625 2.28125 -9.90625 C 2.738281 -10.957031 3.257812 -12.066406 3.84375 -13.234375 C 3.957031 -13.484375 4.023438 -13.757812 4.046875 -14.0625 C 4.078125 -14.375 4.097656 -14.675781 4.109375 -14.96875 C 4.128906 -15.257812 4.175781 -15.519531 4.25 -15.75 C 4.320312 -15.976562 4.484375 -16.140625 4.734375 -16.234375 C 7.921875 -17.503906 10.441406 -17.992188 12.296875 -17.703125 C 12.941406 -17.679688 13.363281 -17.457031 13.5625 -17.03125 C 13.769531 -16.613281 13.796875 -16.144531 13.640625 -15.625 C 13.484375 -15.101562 13.171875 -14.613281 12.703125 -14.15625 C 12.234375 -13.695312 11.644531 -13.414062 10.9375 -13.3125 C 10.03125 -13.050781 9.476562 -12.875 9.28125 -12.78125 C 8.90625 -12.59375 8.628906 -12.347656 8.453125 -12.046875 C 8.242188 -11.703125 8.046875 -11.378906 7.859375 -11.078125 C 7.671875 -10.773438 7.539062 -10.445312 7.46875 -10.09375 L 7.375 -9.578125 C 7.664062 -9.441406 8.019531 -9.398438 8.4375 -9.453125 C 8.863281 -9.503906 9.253906 -9.554688 9.609375 -9.609375 C 9.972656 -9.671875 10.265625 -9.675781 10.484375 -9.625 C 10.710938 -9.582031 10.757812 -9.359375 10.625 -8.953125 C 10.5 -8.546875 10.265625 -8.085938 9.921875 -7.578125 C 9.578125 -7.078125 9.085938 -6.710938 8.453125 -6.484375 C 8.054688 -6.398438 7.785156 -6.335938 7.640625 -6.296875 C 7.492188 -6.265625 7.382812 -6.242188 7.3125 -6.234375 C 7.195312 -6.210938 6.890625 -6.1875 6.390625 -6.15625 C 5.671875 -4.9375 5.234375 -3.988281 5.078125 -3.3125 C 5.015625 -3.03125 5.050781 -2.890625 5.1875 -2.890625 Z M 5.1875 -2.890625 "/></g></g><g transform="translate(57.524147, 22.747521)"><g><path d="M 3.8125 1.328125 C 3.03125 1.359375 2.3125 1.265625 1.65625 1.046875 C 1.007812 0.828125 0.484375 0.523438 0.078125 0.140625 C -0.328125 -0.242188 -0.582031 -0.691406 -0.6875 -1.203125 C -0.789062 -1.722656 -0.695312 -2.25 -0.40625 -2.78125 C -0.0078125 -3.425781 0.785156 -3.617188 1.984375 -3.359375 C 2.878906 -3.171875 3.5 -3.066406 3.84375 -3.046875 C 4.1875 -3.035156 4.484375 -3.082031 4.734375 -3.1875 C 5.847656 -3.5625 6.476562 -3.960938 6.625 -4.390625 C 6.707031 -4.710938 6.503906 -5.085938 6.015625 -5.515625 C 5.816406 -5.703125 5.59375 -5.882812 5.34375 -6.0625 C 5.101562 -6.25 4.898438 -6.4375 4.734375 -6.625 C 3.960938 -7.1875 3.359375 -7.835938 2.921875 -8.578125 C 2.492188 -9.328125 2.316406 -10.132812 2.390625 -11 C 2.460938 -11.875 2.609375 -12.597656 2.828125 -13.171875 C 3.046875 -13.753906 3.3125 -14.265625 3.625 -14.703125 C 4.195312 -15.484375 4.9375 -16.125 5.84375 -16.625 C 6.882812 -17.15625 7.71875 -17.5 8.34375 -17.65625 C 9.582031 -17.925781 10.835938 -17.945312 12.109375 -17.71875 C 12.535156 -17.644531 12.898438 -17.5 13.203125 -17.28125 C 13.515625 -17.070312 13.828125 -16.851562 14.140625 -16.625 C 14.671875 -16.082031 14.800781 -15.535156 14.53125 -14.984375 C 14.414062 -14.742188 14.242188 -14.546875 14.015625 -14.390625 C 13.785156 -14.234375 13.539062 -14.148438 13.28125 -14.140625 C 13.3125 -13.722656 13.238281 -13.414062 13.0625 -13.21875 C 12.707031 -12.863281 12.09375 -12.632812 11.21875 -12.53125 C 9.957031 -12.625 9.109375 -12.550781 8.671875 -12.3125 C 8.148438 -12.039062 7.957031 -11.445312 8.09375 -10.53125 C 8.125 -10.332031 8.25 -10.125 8.46875 -9.90625 C 8.6875 -9.6875 8.945312 -9.453125 9.25 -9.203125 C 9.550781 -8.960938 9.863281 -8.6875 10.1875 -8.375 C 10.519531 -8.070312 10.8125 -7.722656 11.0625 -7.328125 C 11.914062 -5.921875 11.84375 -4.273438 10.84375 -2.390625 C 10.113281 -0.984375 8.859375 0.0703125 7.078125 0.78125 C 6.160156 1.144531 5.070312 1.328125 3.8125 1.328125 Z M 3.8125 1.328125 "/></g></g></g></svg>