<svg xmlns="http://www.w3.org/2000/svg" xmlns:xlink="http://www.w3.org/1999/xlink" width="140" zoomAndPan="magnify" viewBox="0 0 104.88 30.000001" height="40" preserveAspectRatio="xMidYMid meet" version="1.0"><defs><g/></defs><g fill="#000000" fill-opacity="1"><g transform="translate(19.549516, 21.659996)"><g><path d="M 13.21875 -18.699219 C 12.449219 -18.476562 11.679688 -17.53125 11.132812 -16.988281 C 10.789062 -16.664062 10.441406 -16.316406 10.117188 -15.945312 C 9.894531 -15.699219 9.324219 -15.203125 9.273438 -14.855469 C 9.300781 -14.828125 9.300781 -14.828125 9.324219 -14.828125 L 8.976562 -14.382812 C 8.953125 -14.359375 9.226562 -14.753906 9.226562 -14.753906 C 9.101562 -14.730469 8.878906 -14.257812 8.878906 -14.257812 C 8.183594 -13.367188 7.414062 -12.546875 6.769531 -11.605469 C 6.050781 -10.539062 5.457031 -9.449219 4.886719 -8.308594 C 5.207031 -9.496094 5.628906 -10.664062 6.101562 -11.804688 C 6.222656 -12.101562 7.589844 -15.324219 7.636719 -15.300781 C 7.5625 -15.324219 6.347656 -12.597656 6.273438 -12.449219 C 6.84375 -13.835938 7.464844 -15.203125 8.183594 -16.515625 C 8.132812 -16.417969 8.085938 -16.292969 8.109375 -16.292969 C 8.207031 -16.269531 8.703125 -17.234375 8.628906 -17.257812 L 8.554688 -17.210938 C 8.703125 -17.484375 8.777344 -17.632812 8.628906 -18.027344 C 8.480469 -18.425781 8.109375 -19.121094 7.589844 -18.894531 C 7.265625 -18.773438 6.992188 -18.175781 6.867188 -17.929688 C 6.792969 -17.804688 6.769531 -17.605469 6.695312 -17.507812 C 6.597656 -17.359375 6.421875 -17.285156 6.273438 -17.085938 C 5.953125 -16.589844 5.726562 -15.996094 5.503906 -15.449219 C 5.382812 -15.152344 4.015625 -12.199219 4.066406 -12.175781 C 4.117188 -12.199219 4.140625 -12.25 4.167969 -12.300781 C 4.089844 -12.078125 3.992188 -11.855469 3.894531 -11.628906 C 3.867188 -11.65625 3.96875 -11.828125 3.941406 -11.828125 C 3.695312 -11.878906 2.949219 -9.820312 2.902344 -9.621094 C 2.800781 -9.152344 2.679688 -8.730469 2.480469 -8.257812 C 2.355469 -7.960938 2.230469 -7.664062 2.132812 -7.363281 C 2.132812 -7.339844 2.007812 -6.71875 2.109375 -6.945312 C 2.109375 -6.867188 2.082031 -6.820312 2.058594 -6.746094 C 2.058594 -6.769531 2.058594 -6.820312 2.035156 -6.84375 C 1.984375 -6.820312 1.859375 -6.148438 1.835938 -6.125 C 1.734375 -5.878906 1.585938 -5.652344 1.488281 -5.40625 C 1.164062 -4.710938 0.96875 -3.941406 0.792969 -3.199219 L 0.273438 -0.667969 C 0.171875 -0.199219 -0.222656 0.867188 0.148438 1.339844 C 0.148438 1.289062 0.148438 1.265625 0.171875 1.238281 C 0.171875 1.265625 0.171875 1.3125 0.199219 1.363281 C 0.421875 2.183594 1.761719 1.933594 2.207031 1.464844 C 2.207031 1.511719 2.230469 1.539062 2.257812 1.5625 C 2.429688 0.171875 2.925781 -1.238281 3.421875 -2.554688 C 3.621094 -3.125 3.820312 -4.066406 4.214844 -4.511719 C 4.242188 -4.761719 4.363281 -4.835938 4.5625 -4.710938 C 4.710938 -4.6875 4.886719 -4.660156 5.035156 -4.660156 C 5.183594 -4.636719 5.382812 -4.636719 5.554688 -4.660156 C 6.597656 -4.835938 7.710938 -5.53125 8.605469 -6.074219 C 8.953125 -6.273438 9.199219 -6.570312 9.523438 -6.746094 C 9.871094 -6.945312 10.21875 -7.042969 10.5625 -7.316406 C 11.507812 -8.035156 12.273438 -8.851562 13.019531 -9.769531 C 13.761719 -10.664062 14.40625 -11.582031 14.855469 -12.671875 C 15.101562 -13.21875 15.300781 -13.8125 15.472656 -14.40625 C 15.523438 -14.632812 15.699219 -14.953125 15.648438 -15.175781 C 15.648438 -15.175781 15.574219 -15.003906 15.523438 -14.878906 C 15.597656 -15.300781 15.648438 -15.699219 15.621094 -16.144531 C 15.648438 -16.042969 15.699219 -15.894531 15.671875 -15.871094 C 15.722656 -15.894531 15.699219 -16.21875 15.699219 -16.367188 C 15.699219 -16.316406 15.671875 -16.539062 15.699219 -16.464844 C 15.597656 -17.65625 14.507812 -19.070312 13.21875 -18.699219 Z M 13.191406 -15.671875 C 13.167969 -15.574219 13.167969 -15.597656 13.191406 -15.648438 C 13.070312 -13.9375 12.101562 -12.25 11.132812 -10.886719 C 10.636719 -10.167969 10.066406 -9.496094 9.472656 -8.851562 C 9.199219 -8.582031 8.902344 -8.308594 8.605469 -8.058594 C 8.382812 -7.835938 7.910156 -7.589844 7.6875 -7.316406 C 7.886719 -7.515625 8.332031 -7.761719 8.53125 -7.910156 C 8.925781 -8.257812 9.324219 -8.65625 9.695312 -9.027344 C 10.292969 -9.671875 10.863281 -10.339844 11.359375 -11.058594 C 9.84375 -8.804688 7.761719 -6.84375 5.257812 -5.804688 C 5.457031 -5.925781 5.953125 -6.175781 5.953125 -6.199219 C 5.902344 -6.25 4.910156 -5.804688 4.8125 -5.753906 C 5.132812 -6.398438 5.457031 -7.042969 5.804688 -7.6875 C 5.902344 -7.835938 6.695312 -9.347656 6.695312 -9.347656 C 6.644531 -9.347656 6.597656 -9.324219 6.570312 -9.25 C 7.664062 -11.011719 9.101562 -12.769531 10.441406 -14.382812 C 10.863281 -14.878906 13.316406 -18.078125 13.191406 -15.699219 Z M 0.992188 -2.851562 C 1.238281 -3.917969 1.761719 -4.636719 2.082031 -5.605469 C 1.636719 -4.167969 1.089844 -2.703125 0.667969 -1.289062 C 0.769531 -1.785156 0.867188 -2.40625 0.992188 -2.851562 Z M 0.496094 0.324219 C 0.472656 0.421875 0.296875 0.546875 0.273438 0.667969 C 0.347656 0.246094 0.421875 -0.125 0.519531 -0.519531 C 0.472656 -0.246094 0.546875 0.0507812 0.496094 0.324219 Z M 5.953125 -11.628906 L 5.429688 -10.339844 L 5.925781 -11.605469 Z M 5.976562 -11.730469 C 5.976562 -11.679688 5.953125 -11.679688 5.953125 -11.65625 C 5.953125 -11.679688 5.953125 -11.679688 5.976562 -11.730469 Z M 6.027344 -11.828125 L 6 -11.804688 L 6.027344 -11.855469 Z M 6.347656 -8.902344 C 6.347656 -8.925781 6.375 -8.925781 6.375 -8.953125 C 6.375 -8.925781 6.347656 -8.902344 6.347656 -8.902344 Z M 6.347656 -8.902344 "/></g></g></g><g fill="#000000" fill-opacity="1"><g transform="translate(32.071636, 21.659996)"><g><path d="M 9.917969 -6.324219 C 9.570312 -5.953125 9.347656 -5.332031 9.074219 -4.886719 C 8.65625 -4.167969 8.234375 -3.472656 7.785156 -2.777344 C 6.945312 -1.4375 6.101562 -0.0742188 5.082031 1.140625 C 4.660156 1.660156 3.769531 2.925781 2.925781 2.828125 C 2.304688 2.726562 2.304688 1.660156 2.304688 1.191406 C 2.304688 0.792969 2.332031 0.398438 2.378906 0.0234375 C 2.40625 -0.199219 2.605469 -0.941406 2.480469 -1.140625 L 2.28125 -0.398438 C 2.304688 -0.695312 2.355469 -1.015625 2.429688 -1.3125 C 2.40625 -1.363281 2.628906 -2.058594 2.679688 -2.28125 C 2.800781 -2.777344 2.925781 -3.273438 3.074219 -3.769531 C 3.199219 -4.265625 3.324219 -4.738281 3.472656 -5.207031 C 3.597656 -5.652344 3.769531 -5.878906 4.042969 -6.222656 C 5.15625 -7.613281 6.175781 -9.125 7.117188 -10.636719 C 7.464844 -11.207031 7.6875 -11.703125 8.109375 -12.175781 C 8.730469 -12.820312 9.152344 -13.789062 9.546875 -14.582031 C 10.21875 -15.871094 11.109375 -17.65625 10.960938 -19.167969 L 10.960938 -19.292969 L 10.9375 -19.316406 C 10.789062 -20.285156 9.894531 -21.425781 8.804688 -21.078125 C 8.234375 -20.90625 7.8125 -20.308594 7.464844 -19.886719 L 6.894531 -19.121094 C 6.769531 -18.96875 6.597656 -18.597656 6.472656 -18.398438 L 6.496094 -18.425781 L 5.703125 -17.0625 L 5.902344 -17.484375 C 5.777344 -17.507812 5.234375 -16.441406 5.15625 -16.316406 C 4.886719 -15.847656 4.636719 -15.375 4.414062 -14.902344 C 3.917969 -13.910156 3.421875 -12.894531 3.101562 -11.828125 C 2.753906 -10.761719 2.355469 -9.722656 1.984375 -8.65625 C 1.785156 -8.085938 1.585938 -7.488281 1.414062 -6.917969 C 1.265625 -6.449219 0.917969 -5.679688 0.992188 -5.183594 L 1.066406 -5.183594 C 0.992188 -5.007812 0.941406 -4.835938 0.894531 -4.660156 C 0.917969 -4.8125 0.917969 -4.984375 0.941406 -5.035156 C 0.816406 -4.859375 0.84375 -4.265625 0.816406 -4.214844 C 0.496094 -2.875 0.125 -1.539062 0.0234375 -0.148438 C -0.0507812 1.164062 -0.0507812 2.902344 0.992188 3.867188 C 2.15625 4.933594 3.496094 4.214844 4.464844 3.296875 C 5.605469 2.183594 6.570312 0.867188 7.464844 -0.421875 C 8.28125 -1.613281 8.925781 -2.875 9.671875 -4.066406 C 9.96875 -4.5625 10.292969 -5.058594 10.441406 -5.605469 C 10.539062 -6 10.488281 -6.917969 9.917969 -6.324219 Z M 6.820312 -15.203125 C 7.316406 -16.390625 7.8125 -17.605469 8.503906 -18.722656 C 8.679688 -18.996094 9.796875 -20.484375 9.746094 -19.167969 L 9.746094 -19.144531 C 9.695312 -17.753906 8.804688 -16.292969 8.207031 -15.101562 L 7.167969 -13.167969 C 6.820312 -12.574219 6.222656 -11.828125 6.027344 -11.183594 C 6.175781 -11.582031 6.621094 -12.152344 6.84375 -12.523438 C 7.214844 -13.144531 7.539062 -13.761719 7.886719 -14.382812 C 8.457031 -15.472656 9.074219 -16.613281 9.496094 -17.804688 C 8.382812 -14.480469 6.296875 -11.382812 4.464844 -8.429688 C 5.183594 -10.613281 5.902344 -12.996094 6.820312 -15.203125 Z M 6.027344 -16.9375 C 6.273438 -17.410156 6.71875 -17.804688 6.96875 -18.25 C 6.449219 -17.210938 5.804688 -16.269531 5.257812 -15.277344 C 5.257812 -15.300781 5.257812 -15.351562 5.28125 -15.375 C 5.503906 -15.921875 5.753906 -16.417969 6.027344 -16.9375 Z M 1.339844 -4.117188 C 1.3125 -4.066406 1.3125 -4.042969 1.3125 -4.042969 C 1.015625 -3.347656 0.992188 -2.40625 0.84375 -1.660156 C 0.816406 -1.488281 0.769531 -1.339844 0.769531 -1.164062 L 0.769531 -1.238281 L 0.695312 -0.445312 C 0.742188 -1.339844 0.84375 -2.257812 1.015625 -3.125 L 1.015625 -3.101562 C 1.089844 -3.671875 1.214844 -4.191406 1.3125 -4.191406 C 1.363281 -4.214844 1.363281 -4.140625 1.339844 -4.117188 Z M 1.339844 -4.117188 "/></g></g></g><g fill="#000000" fill-opacity="1"><g transform="translate(40.849519, 21.659996)"><g><path d="M 12.621094 -5.976562 C 12.597656 -6.523438 12.152344 -6.050781 12.003906 -5.851562 C 11.679688 -5.382812 11.382812 -4.886719 11.085938 -4.414062 C 10.414062 -3.398438 9.746094 -2.378906 8.976562 -1.414062 C 6.421875 1.734375 8.207031 -3.867188 8.011719 -3.820312 C 7.910156 -3.792969 7.835938 -3.421875 7.8125 -3.347656 C 8.011719 -4.242188 8.382812 -5.308594 8.851562 -6.175781 C 9.125 -6.71875 9.449219 -7.167969 8.953125 -7.761719 C 8.035156 -8.878906 6.96875 -7.859375 6.375 -7.09375 C 6.125 -8.035156 5.628906 -9.421875 4.414062 -9.421875 C 3.867188 -9.421875 3.546875 -9.152344 3.175781 -8.828125 C 2.949219 -8.679688 2.777344 -8.65625 2.578125 -8.480469 C 2.257812 -8.257812 2.035156 -7.910156 1.808594 -7.613281 C 0.96875 -6.375 0.371094 -4.8125 0.0976562 -3.371094 C -0.0234375 -2.679688 -0.0742188 -1.910156 0.125 -1.214844 C 0.246094 -0.816406 0.695312 0.0742188 1.265625 0 C 1.289062 0 1.238281 -0.0234375 1.164062 -0.0742188 C 1.511719 0.0234375 1.910156 -0.0234375 2.207031 -0.222656 C 2.230469 -0.171875 1.933594 -0.0507812 1.933594 -0.0507812 C 2.207031 0.371094 4.242188 -2.082031 4.390625 -2.304688 C 4.710938 -2.753906 4.933594 -3.222656 5.234375 -3.695312 C 5.457031 -4.042969 5.804688 -4.488281 6.050781 -4.859375 C 6.027344 -4.6875 6.027344 -4.464844 6.027344 -4.464844 C 5.578125 -3.050781 5.15625 -1.511719 5.753906 -0.0507812 C 6.027344 0.695312 6.695312 1.390625 7.539062 1.238281 C 8.28125 1.117188 8.902344 0.398438 9.347656 -0.171875 C 9.894531 -0.816406 10.367188 -1.539062 10.835938 -2.28125 C 11.234375 -2.949219 11.605469 -3.621094 11.929688 -4.363281 C 12.125 -4.835938 12.671875 -5.40625 12.621094 -5.976562 Z M 5.503906 -5.804688 C 5.382812 -5.628906 5.257812 -5.457031 5.15625 -5.28125 L 4.511719 -4.363281 C 4.089844 -3.746094 3.644531 -3.148438 3.175781 -2.578125 C 3.050781 -2.40625 2.453125 -1.636719 2.207031 -1.710938 C 1.835938 -1.835938 2.230469 -3.125 2.28125 -3.324219 C 2.355469 -3.671875 3.671875 -7.488281 4.015625 -7.5625 C 3.570312 -7.589844 2.132812 -3.101562 2.058594 -2.726562 C 2.257812 -3.941406 2.703125 -5.132812 3.199219 -6.25 C 3.472656 -6.820312 4.089844 -8.332031 4.910156 -8.332031 C 5.355469 -8.332031 5.457031 -7.414062 5.53125 -7.117188 C 5.503906 -7.167969 5.28125 -7.886719 5.257812 -7.859375 C 5.132812 -7.761719 5.628906 -6.398438 5.628906 -6.199219 C 5.628906 -6 5.628906 -6 5.503906 -5.804688 Z M 6.074219 -4.585938 C 6.074219 -4.585938 6.148438 -4.933594 6.175781 -5.007812 L 6.296875 -5.183594 Z M 5.703125 -6.125 L 5.703125 -6.375 C 5.777344 -6.273438 5.777344 -6.199219 5.703125 -6.125 Z M 5.703125 -6.125 "/></g></g></g><g fill="#000000" fill-opacity="1"><g transform="translate(51.660695, 21.659996)"><g><path d="M 10.265625 -5.902344 C 10.140625 -6.496094 9.796875 -6.101562 9.648438 -5.878906 C 9.300781 -5.457031 8.753906 -5.058594 8.332031 -4.660156 C 7.761719 -4.167969 7.191406 -3.644531 6.597656 -3.175781 C 6.296875 -2.925781 5.925781 -2.578125 5.554688 -2.453125 C 5.503906 -2.429688 5.332031 -2.40625 5.332031 -2.378906 L 5.308594 -2.40625 C 5.308594 -2.40625 5.28125 -2.800781 5.308594 -2.828125 C 5.332031 -3.148438 5.429688 -3.472656 5.53125 -3.769531 C 5.554688 -3.820312 5.828125 -4.660156 5.777344 -4.660156 L 5.652344 -4.511719 C 5.804688 -4.8125 6 -5.109375 6.175781 -5.429688 C 5.777344 -5.058594 5.503906 -4.636719 5.308594 -4.117188 C 5.207031 -3.867188 4.933594 -3.421875 4.886719 -3.050781 C 4.933594 -3.597656 5.308594 -4.316406 5.480469 -4.636719 C 5.726562 -5.15625 6 -5.753906 6.324219 -6.25 C 6.917969 -7.140625 8.207031 -7.960938 7.8125 -9.199219 C 7.464844 -10.367188 6.546875 -10.390625 5.828125 -9.722656 C 5.480469 -9.398438 2.53125 -5.628906 2.605469 -5.578125 C 2.605469 -5.578125 2.851562 -5.878906 3.175781 -6.296875 L 1.710938 -4.167969 C 1.6875 -4.167969 1.960938 -4.585938 1.933594 -4.613281 C 1.910156 -4.636719 1.734375 -4.464844 1.710938 -4.363281 C 1.761719 -4.886719 1.933594 -5.40625 1.984375 -5.925781 C 2.007812 -6.125 1.984375 -6.273438 2.035156 -6.472656 C 2.132812 -6.792969 2.230469 -7.140625 2.378906 -7.414062 C 2.480469 -7.613281 2.679688 -7.785156 2.726562 -7.984375 C 2.828125 -8.308594 2.800781 -8.429688 3.023438 -8.703125 C 3.222656 -8.953125 3.519531 -9.199219 3.695312 -9.421875 C 4.117188 -10.042969 3.398438 -10.464844 3 -10.539062 C 2.679688 -10.589844 2.355469 -10.613281 2.058594 -10.441406 C 1.734375 -10.242188 1.808594 -10.066406 1.734375 -9.796875 C 1.660156 -9.449219 1.414062 -9.050781 1.289062 -8.730469 C 1.089844 -8.207031 0.917969 -7.6875 0.742188 -7.167969 C 0.546875 -6.644531 0.347656 -6.148438 0.199219 -5.628906 C 0.0742188 -5.207031 0.0976562 -4.8125 0.0507812 -4.414062 C 0 -3.96875 -0.0742188 -3.671875 0.148438 -3.273438 C 0.398438 -2.851562 1.066406 -2.207031 1.511719 -2.753906 L 1.613281 -2.554688 C 2.035156 -3.472656 2.679688 -4.289062 3.199219 -5.183594 C 3.421875 -5.578125 3.820312 -5.851562 4.140625 -6.273438 C 4.585938 -6.867188 4.984375 -7.464844 5.480469 -8.035156 C 5.40625 -7.910156 5.082031 -7.339844 5.109375 -7.316406 C 5.15625 -7.339844 5.183594 -7.390625 5.234375 -7.441406 L 4.886719 -6.746094 C 4.859375 -6.769531 4.984375 -6.945312 4.933594 -6.945312 C 4.761719 -6.992188 4.242188 -5.605469 4.191406 -5.480469 C 4.015625 -4.933594 3.992188 -4.4375 3.941406 -3.867188 C 3.917969 -3.597656 3.867188 -3.324219 3.867188 -3.050781 C 3.867188 -2.777344 3.894531 -2.503906 4.015625 -2.230469 C 4.089844 -2.082031 4.191406 -1.882812 4.316406 -1.761719 C 4.339844 -1.761719 4.613281 -1.511719 4.488281 -1.710938 L 4.636719 -1.5625 L 4.5625 -1.613281 C 4.539062 -1.488281 5.457031 -0.992188 5.605469 -0.941406 C 6.296875 -0.71875 7.042969 -1.511719 7.488281 -1.984375 C 8.085938 -2.628906 8.582031 -3.371094 9.125 -4.066406 C 9.421875 -4.464844 10.367188 -5.308594 10.265625 -5.902344 Z M 10.265625 -5.902344 "/></g></g></g><g fill="#000000" fill-opacity="1"><g transform="translate(60.116226, 21.659996)"><g><path d="M 10.265625 -5.902344 C 10.140625 -6.496094 9.796875 -6.101562 9.648438 -5.878906 C 9.300781 -5.457031 8.753906 -5.058594 8.332031 -4.660156 C 7.761719 -4.167969 7.191406 -3.644531 6.597656 -3.175781 C 6.296875 -2.925781 5.925781 -2.578125 5.554688 -2.453125 C 5.503906 -2.429688 5.332031 -2.40625 5.332031 -2.378906 L 5.308594 -2.40625 C 5.308594 -2.40625 5.28125 -2.800781 5.308594 -2.828125 C 5.332031 -3.148438 5.429688 -3.472656 5.53125 -3.769531 C 5.554688 -3.820312 5.828125 -4.660156 5.777344 -4.660156 L 5.652344 -4.511719 C 5.804688 -4.8125 6 -5.109375 6.175781 -5.429688 C 5.777344 -5.058594 5.503906 -4.636719 5.308594 -4.117188 C 5.207031 -3.867188 4.933594 -3.421875 4.886719 -3.050781 C 4.933594 -3.597656 5.308594 -4.316406 5.480469 -4.636719 C 5.726562 -5.15625 6 -5.753906 6.324219 -6.25 C 6.917969 -7.140625 8.207031 -7.960938 7.8125 -9.199219 C 7.464844 -10.367188 6.546875 -10.390625 5.828125 -9.722656 C 5.480469 -9.398438 2.53125 -5.628906 2.605469 -5.578125 C 2.605469 -5.578125 2.851562 -5.878906 3.175781 -6.296875 L 1.710938 -4.167969 C 1.6875 -4.167969 1.960938 -4.585938 1.933594 -4.613281 C 1.910156 -4.636719 1.734375 -4.464844 1.710938 -4.363281 C 1.761719 -4.886719 1.933594 -5.40625 1.984375 -5.925781 C 2.007812 -6.125 1.984375 -6.273438 2.035156 -6.472656 C 2.132812 -6.792969 2.230469 -7.140625 2.378906 -7.414062 C 2.480469 -7.613281 2.679688 -7.785156 2.726562 -7.984375 C 2.828125 -8.308594 2.800781 -8.429688 3.023438 -8.703125 C 3.222656 -8.953125 3.519531 -9.199219 3.695312 -9.421875 C 4.117188 -10.042969 3.398438 -10.464844 3 -10.539062 C 2.679688 -10.589844 2.355469 -10.613281 2.058594 -10.441406 C 1.734375 -10.242188 1.808594 -10.066406 1.734375 -9.796875 C 1.660156 -9.449219 1.414062 -9.050781 1.289062 -8.730469 C 1.089844 -8.207031 0.917969 -7.6875 0.742188 -7.167969 C 0.546875 -6.644531 0.347656 -6.148438 0.199219 -5.628906 C 0.0742188 -5.207031 0.0976562 -4.8125 0.0507812 -4.414062 C 0 -3.96875 -0.0742188 -3.671875 0.148438 -3.273438 C 0.398438 -2.851562 1.066406 -2.207031 1.511719 -2.753906 L 1.613281 -2.554688 C 2.035156 -3.472656 2.679688 -4.289062 3.199219 -5.183594 C 3.421875 -5.578125 3.820312 -5.851562 4.140625 -6.273438 C 4.585938 -6.867188 4.984375 -7.464844 5.480469 -8.035156 C 5.40625 -7.910156 5.082031 -7.339844 5.109375 -7.316406 C 5.15625 -7.339844 5.183594 -7.390625 5.234375 -7.441406 L 4.886719 -6.746094 C 4.859375 -6.769531 4.984375 -6.945312 4.933594 -6.945312 C 4.761719 -6.992188 4.242188 -5.605469 4.191406 -5.480469 C 4.015625 -4.933594 3.992188 -4.4375 3.941406 -3.867188 C 3.917969 -3.597656 3.867188 -3.324219 3.867188 -3.050781 C 3.867188 -2.777344 3.894531 -2.503906 4.015625 -2.230469 C 4.089844 -2.082031 4.191406 -1.882812 4.316406 -1.761719 C 4.339844 -1.761719 4.613281 -1.511719 4.488281 -1.710938 L 4.636719 -1.5625 L 4.5625 -1.613281 C 4.539062 -1.488281 5.457031 -0.992188 5.605469 -0.941406 C 6.296875 -0.71875 7.042969 -1.511719 7.488281 -1.984375 C 8.085938 -2.628906 8.582031 -3.371094 9.125 -4.066406 C 9.421875 -4.464844 10.367188 -5.308594 10.265625 -5.902344 Z M 10.265625 -5.902344 "/></g></g></g><g fill="#000000" fill-opacity="1"><g transform="translate(68.571758, 21.659996)"><g><path d="M 9.496094 -6.125 C 9.496094 -6.101562 9.496094 -6.101562 9.472656 -6.125 L 9.472656 -6.148438 C 9.074219 -6.820312 8.554688 -5.902344 8.332031 -5.578125 C 7.910156 -5.007812 7.515625 -4.464844 7.066406 -3.941406 C 6.695312 -3.496094 6.296875 -3.050781 6 -2.578125 C 6 -2.53125 5.953125 -2.40625 5.953125 -2.40625 C 5.851562 -2.257812 5.703125 -2.132812 5.578125 -1.984375 C 5.355469 -1.761719 5.132812 -1.511719 4.886719 -1.289062 C 4.511719 -0.941406 2.429688 1.015625 2.15625 -0.246094 C 2.007812 -0.867188 2.207031 -1.636719 2.332031 -2.230469 C 2.40625 -2.554688 2.480469 -2.851562 2.53125 -3.175781 C 2.578125 -3.421875 2.503906 -3.671875 2.628906 -3.917969 C 2.703125 -4.066406 2.726562 -4.042969 2.902344 -4.089844 L 3.324219 -4.242188 C 3.597656 -4.339844 3.867188 -4.4375 4.117188 -4.585938 C 4.488281 -4.8125 4.835938 -5.082031 5.15625 -5.355469 C 5.925781 -6 6.746094 -6.769531 7.066406 -7.738281 C 7.242188 -8.28125 7.265625 -8.878906 6.917969 -9.347656 C 6.597656 -9.769531 6.050781 -9.992188 5.554688 -10.09375 C 4.214844 -10.339844 3.199219 -9.570312 2.429688 -8.554688 C 1.488281 -7.390625 0.816406 -5.953125 0.496094 -4.488281 C 0.324219 -3.769531 0.222656 -3.050781 0.0976562 -2.304688 C -0.0234375 -1.5625 -0.0976562 -0.867188 0.296875 -0.171875 C 0.273438 -0.421875 0.222656 -0.644531 0.222656 -0.867188 C 0.222656 -0.992188 0.273438 -1.117188 0.273438 -1.214844 C 0.273438 -1.265625 0.222656 -1.414062 0.222656 -1.488281 C 0.222656 -1.710938 0.273438 -1.882812 0.324219 -2.109375 C 0.347656 -2.332031 0.324219 -2.554688 0.347656 -2.777344 C 0.371094 -3.023438 0.472656 -3.222656 0.570312 -3.445312 C 0.644531 -3.644531 0.667969 -3.820312 0.742188 -4.015625 C 0.816406 -4.191406 0.867188 -4.390625 0.941406 -4.585938 C 0.96875 -4.710938 1.089844 -4.859375 1.164062 -5.007812 C 1.089844 -4.785156 0.941406 -4.585938 0.894531 -4.390625 C 0.816406 -4.089844 0.867188 -3.769531 0.84375 -3.472656 C 0.792969 -3.148438 0.695312 -2.828125 0.644531 -2.480469 C 0.59375 -2.15625 0.445312 -1.859375 0.398438 -1.539062 C 0.347656 -1.238281 0.246094 -1.015625 0.273438 -0.71875 C 0.273438 -0.546875 0.296875 -0.371094 0.324219 -0.222656 C 0.347656 -0.0234375 0.472656 0.0976562 0.59375 0.246094 C 1.015625 0.742188 1.585938 1.140625 2.230469 1.3125 C 2.679688 1.4375 3.074219 1.414062 3.496094 1.191406 C 4.089844 0.867188 4.613281 0.371094 5.058594 -0.0976562 C 5.480469 -0.570312 5.804688 -1.089844 6.175781 -1.585938 C 6.523438 -2.035156 6.945312 -2.453125 7.289062 -2.902344 L 8.628906 -4.636719 L 9.398438 -5.652344 C 9.523438 -5.804688 9.597656 -5.925781 9.496094 -6.125 Z M 3.347656 -5.851562 C 3.371094 -5.902344 3.371094 -5.925781 3.371094 -5.925781 C 3.746094 -6.71875 4.015625 -7.5625 4.539062 -8.332031 L 4.984375 -8.925781 C 5.082031 -9.050781 5.257812 -9.273438 5.429688 -9.324219 C 5.804688 -9.398438 5.902344 -8.753906 5.878906 -8.503906 L 5.777344 -7.984375 C 5.753906 -7.835938 5.804688 -7.738281 5.777344 -7.613281 C 5.726562 -7.464844 5.605469 -7.390625 5.53125 -7.265625 L 5.109375 -6.71875 C 4.539062 -6.050781 3.820312 -5.480469 3.023438 -5.058594 C 3.148438 -5.332031 3.222656 -5.605469 3.347656 -5.851562 Z M 3.347656 -5.851562 "/></g></g></g><g fill="#000000" fill-opacity="1"><g transform="translate(76.283399, 21.659996)"><g><path d="M 10.167969 -6.027344 C 10.019531 -6.671875 9.421875 -5.804688 9.300781 -5.652344 L 7.933594 -3.820312 L 6.597656 -2.058594 L 5.878906 -1.140625 C 5.804688 -1.042969 5.257812 -0.347656 5.308594 -0.347656 C 5.355469 -0.398438 5.429688 -0.398438 5.503906 -0.472656 C 5.132812 -0.0742188 3.769531 1.164062 3.519531 0.867188 C 3.324219 0.621094 3.867188 -0.421875 3.941406 -0.667969 C 4.214844 -1.390625 4.464844 -2.132812 4.761719 -2.828125 C 5.082031 -3.546875 5.457031 -4.265625 5.753906 -4.984375 C 6.050781 -5.753906 5.605469 -6.027344 4.886719 -6.199219 C 4.5625 -6.273438 4.167969 -6.273438 3.792969 -6.324219 C 3.792969 -6.296875 3.820312 -6.296875 3.820312 -6.296875 C 4.140625 -6.25 4.613281 -6.222656 5.007812 -6.101562 C 4.414062 -6.273438 3.671875 -6.199219 3.199219 -6.324219 C 2.875 -6.398438 2.679688 -6.398438 2.726562 -6.769531 C 2.777344 -7.265625 3.296875 -7.785156 3.472656 -8.257812 C 3.472656 -8.234375 3.296875 -7.785156 3.324219 -7.785156 C 3.445312 -7.738281 3.644531 -8.429688 3.644531 -8.53125 C 3.621094 -8.65625 3.324219 -9.027344 3.296875 -8.878906 L 3.347656 -8.804688 C 2.15625 -9.621094 0.742188 -7.933594 0.992188 -6.71875 C 1.042969 -6.546875 1.140625 -6.449219 1.214844 -6.25 C 1.265625 -6.101562 1.214844 -5.925781 1.363281 -5.726562 C 1.882812 -5.082031 2.828125 -5.058594 3.570312 -5.207031 C 3.445312 -5.035156 2.132812 -2.257812 2.207031 -2.230469 L 2.035156 -1.613281 C 2.007812 -1.636719 2.109375 -1.835938 2.058594 -1.835938 C 1.882812 -1.859375 1.539062 -0.421875 1.511719 -0.296875 C 1.414062 0.296875 1.4375 0.816406 1.6875 1.363281 C 1.835938 1.710938 2.007812 2.007812 2.332031 2.207031 C 2.628906 2.40625 3 2.503906 3.347656 2.429688 C 3.472656 2.378906 3.941406 2.058594 3.820312 2.082031 L 3.992188 2.007812 C 3.96875 2.035156 3.941406 2.058594 3.941406 2.082031 C 4.015625 2.109375 5.15625 1.191406 5.308594 1.089844 C 6.101562 0.421875 6.746094 -0.398438 7.339844 -1.214844 C 7.933594 -2.058594 8.554688 -2.902344 9.125 -3.746094 C 9.398438 -4.140625 9.648438 -4.539062 9.84375 -4.960938 C 9.992188 -5.257812 10.242188 -5.679688 10.167969 -6.027344 Z M 2.753906 -3.050781 C 2.925781 -3.496094 3.125 -3.917969 3.347656 -4.339844 C 3.398438 -4.414062 3.746094 -5.308594 3.917969 -5.355469 C 3.792969 -5.28125 3.273438 -4.066406 3.148438 -3.84375 L 2.679688 -2.753906 C 2.429688 -2.15625 2.15625 -1.539062 1.984375 -0.894531 C 2.15625 -1.636719 2.453125 -2.355469 2.753906 -3.050781 Z M 2.15625 1.710938 C 2.304688 1.910156 2.503906 2.109375 2.777344 2.207031 C 2.554688 2.132812 2.355469 2.007812 2.207031 1.859375 C 2.230469 1.859375 2.230469 1.882812 2.230469 1.910156 C 2.082031 1.710938 1.882812 1.289062 1.859375 1.214844 C 1.785156 0.917969 1.761719 0.570312 1.785156 0.273438 C 1.785156 0.0234375 1.808594 -0.171875 1.859375 -0.398438 L 1.859375 -0.371094 C 1.808594 -0.0507812 1.785156 0.273438 1.808594 0.621094 L 1.808594 0.742188 C 1.785156 0.71875 1.785156 0.695312 1.785156 0.695312 C 1.785156 0.695312 1.785156 0.71875 1.808594 0.769531 L 1.808594 0.792969 L 1.910156 1.3125 L 1.835938 0.992188 C 1.882812 1.140625 2.007812 1.414062 2.132812 1.6875 L 2.109375 1.660156 C 2.109375 1.6875 2.132812 1.710938 2.15625 1.734375 Z M 2.851562 -6.472656 C 2.976562 -6.375 3.199219 -6.347656 3.421875 -6.324219 C 3.222656 -6.347656 3.050781 -6.398438 2.925781 -6.496094 C 2.925781 -6.496094 2.777344 -6.621094 2.753906 -6.671875 C 2.753906 -6.621094 2.800781 -6.496094 2.851562 -6.472656 Z M 5.457031 -4.539062 L 4.933594 -3.445312 L 5.457031 -4.5625 Z M 1.882812 -0.472656 C 1.882812 -0.445312 1.859375 -0.421875 1.859375 -0.398438 L 1.859375 -0.421875 C 1.859375 -0.445312 1.882812 -0.445312 1.882812 -0.472656 Z M 5.480469 -4.613281 L 5.480469 -4.585938 L 5.457031 -4.585938 Z M 5.480469 -4.613281 L 5.480469 -4.585938 L 5.457031 -4.585938 Z M 1.910156 -0.792969 C 1.910156 -0.816406 1.933594 -0.84375 1.933594 -0.894531 C 1.933594 -0.84375 1.910156 -0.816406 1.910156 -0.792969 Z M 2.007812 1.488281 C 2.007812 1.488281 2.035156 1.511719 2.035156 1.539062 C 2.035156 1.511719 2.007812 1.511719 2.007812 1.488281 Z M 2.777344 -6.71875 C 2.753906 -6.71875 2.753906 -6.695312 2.753906 -6.695312 Z M 2.777344 -6.71875 "/></g></g></g></svg>