<svg xmlns="http://www.w3.org/2000/svg" xmlns:xlink="http://www.w3.org/1999/xlink" width="140" zoomAndPan="magnify" viewBox="0 0 104.88 30.000001" height="40" preserveAspectRatio="xMidYMid meet" version="1.0"><defs><g/><clipPath id="id1"><path d="M 2.265625 4.410156 L 22.410156 4.410156 L 22.410156 24.554688 L 2.265625 24.554688 Z M 2.265625 4.410156 " clip-rule="nonzero"/></clipPath></defs><g fill="#000000" fill-opacity="1"><g transform="translate(26.695429, 20.322582)"><g><path d="M 8.53125 -8.65625 C 8.53125 -7.90625 8.351562 -7.226562 8 -6.625 C 7.644531 -6.019531 7.179688 -5.484375 6.609375 -5.015625 C 6.773438 -4.753906 6.953125 -4.445312 7.140625 -4.09375 C 7.328125 -3.75 7.492188 -3.378906 7.640625 -2.984375 C 7.796875 -2.597656 7.921875 -2.207031 8.015625 -1.8125 C 8.109375 -1.425781 8.15625 -1.066406 8.15625 -0.734375 C 8.15625 -0.390625 8.066406 -0.078125 7.890625 0.203125 C 7.722656 0.484375 7.4375 0.625 7.03125 0.625 C 6.6875 0.625 6.390625 0.457031 6.140625 0.125 C 5.898438 -0.195312 5.679688 -0.585938 5.484375 -1.046875 C 5.296875 -1.503906 5.117188 -1.96875 4.953125 -2.4375 C 4.796875 -2.90625 4.648438 -3.285156 4.515625 -3.578125 C 4.316406 -3.503906 4.125 -3.425781 3.9375 -3.34375 C 3.75 -3.269531 3.554688 -3.191406 3.359375 -3.109375 C 3.347656 -2.867188 3.328125 -2.535156 3.296875 -2.109375 C 3.273438 -1.691406 3.21875 -1.273438 3.125 -0.859375 C 3.03125 -0.441406 2.890625 -0.0820312 2.703125 0.21875 C 2.515625 0.53125 2.253906 0.6875 1.921875 0.6875 C 1.566406 0.6875 1.289062 0.535156 1.09375 0.234375 C 0.894531 -0.0546875 0.753906 -0.40625 0.671875 -0.8125 C 0.585938 -1.21875 0.539062 -1.628906 0.53125 -2.046875 C 0.519531 -2.472656 0.515625 -2.804688 0.515625 -3.046875 C 0.515625 -3.554688 0.523438 -4.0625 0.546875 -4.5625 C 0.566406 -5.0625 0.578125 -5.570312 0.578125 -6.09375 C 0.578125 -6.5625 0.566406 -7.03125 0.546875 -7.5 C 0.535156 -7.976562 0.53125 -8.457031 0.53125 -8.9375 C 0.53125 -9.050781 0.53125 -9.191406 0.53125 -9.359375 C 0.53125 -9.523438 0.535156 -9.695312 0.546875 -9.875 C 0.566406 -10.0625 0.585938 -10.238281 0.609375 -10.40625 C 0.628906 -10.570312 0.664062 -10.703125 0.71875 -10.796875 C 0.832031 -11.023438 1.082031 -11.242188 1.46875 -11.453125 C 1.863281 -11.660156 2.289062 -11.84375 2.75 -12 C 3.21875 -12.164062 3.675781 -12.296875 4.125 -12.390625 C 4.570312 -12.484375 4.90625 -12.53125 5.125 -12.53125 C 5.675781 -12.53125 6.164062 -12.425781 6.59375 -12.21875 C 7.03125 -12.007812 7.390625 -11.722656 7.671875 -11.359375 C 7.953125 -11.003906 8.164062 -10.59375 8.3125 -10.125 C 8.457031 -9.664062 8.53125 -9.175781 8.53125 -8.65625 Z M 5.484375 -8.4375 C 5.484375 -8.71875 5.414062 -8.929688 5.28125 -9.078125 C 5.15625 -9.222656 4.941406 -9.296875 4.640625 -9.296875 C 4.421875 -9.296875 4.195312 -9.257812 3.96875 -9.1875 C 3.75 -9.113281 3.546875 -9.023438 3.359375 -8.921875 C 3.398438 -8.054688 3.414062 -7.195312 3.40625 -6.34375 C 3.632812 -6.414062 3.867188 -6.507812 4.109375 -6.625 C 4.359375 -6.75 4.582031 -6.898438 4.78125 -7.078125 C 4.988281 -7.253906 5.15625 -7.453125 5.28125 -7.671875 C 5.414062 -7.890625 5.484375 -8.144531 5.484375 -8.4375 Z M 5.484375 -8.4375 "/></g></g></g><g fill="#000000" fill-opacity="1"><g transform="translate(35.302619, 20.322582)"><g><path d="M 7.671875 -2.578125 C 7.671875 -2.367188 7.613281 -2.164062 7.5 -1.96875 C 7.394531 -1.789062 7.140625 -1.570312 6.734375 -1.3125 C 6.328125 -1.0625 5.875 -0.820312 5.375 -0.59375 C 4.882812 -0.375 4.410156 -0.179688 3.953125 -0.015625 C 3.492188 0.140625 3.15625 0.21875 2.9375 0.21875 C 2.78125 0.21875 2.597656 0.179688 2.390625 0.109375 C 2.179688 0.0351562 1.972656 -0.0507812 1.765625 -0.15625 C 1.554688 -0.269531 1.363281 -0.394531 1.1875 -0.53125 C 1.019531 -0.675781 0.898438 -0.816406 0.828125 -0.953125 C 0.773438 -1.023438 0.726562 -1.175781 0.6875 -1.40625 C 0.65625 -1.644531 0.625 -1.914062 0.59375 -2.21875 C 0.570312 -2.53125 0.550781 -2.859375 0.53125 -3.203125 C 0.507812 -3.546875 0.488281 -3.875 0.46875 -4.1875 C 0.445312 -4.5 0.429688 -4.773438 0.421875 -5.015625 C 0.421875 -5.265625 0.421875 -5.441406 0.421875 -5.546875 C 0.421875 -5.953125 0.4375 -6.414062 0.46875 -6.9375 C 0.5 -7.46875 0.550781 -8 0.625 -8.53125 C 0.695312 -9.0625 0.804688 -9.570312 0.953125 -10.0625 C 1.109375 -10.550781 1.3125 -10.96875 1.5625 -11.3125 C 1.632812 -11.40625 1.785156 -11.503906 2.015625 -11.609375 C 2.253906 -11.722656 2.53125 -11.828125 2.84375 -11.921875 C 3.15625 -12.023438 3.488281 -12.117188 3.84375 -12.203125 C 4.207031 -12.296875 4.554688 -12.375 4.890625 -12.4375 C 5.234375 -12.5 5.539062 -12.546875 5.8125 -12.578125 C 6.082031 -12.617188 6.289062 -12.640625 6.4375 -12.640625 C 6.601562 -12.640625 6.757812 -12.601562 6.90625 -12.53125 C 7.050781 -12.46875 7.175781 -12.375 7.28125 -12.25 C 7.382812 -12.125 7.46875 -11.988281 7.53125 -11.84375 C 7.59375 -11.695312 7.625 -11.539062 7.625 -11.375 C 7.625 -11.226562 7.601562 -11.101562 7.5625 -11 C 7.519531 -10.90625 7.460938 -10.800781 7.390625 -10.6875 C 7.285156 -10.539062 7.054688 -10.367188 6.703125 -10.171875 C 6.347656 -9.972656 5.960938 -9.773438 5.546875 -9.578125 C 5.140625 -9.390625 4.742188 -9.21875 4.359375 -9.0625 C 3.984375 -8.914062 3.722656 -8.8125 3.578125 -8.75 C 3.523438 -8.488281 3.472656 -8.226562 3.421875 -7.96875 C 3.378906 -7.71875 3.347656 -7.457031 3.328125 -7.1875 C 3.671875 -7.363281 4.054688 -7.53125 4.484375 -7.6875 C 4.910156 -7.84375 5.316406 -7.921875 5.703125 -7.921875 C 6.472656 -7.921875 6.859375 -7.535156 6.859375 -6.765625 C 6.859375 -6.578125 6.820312 -6.410156 6.75 -6.265625 C 6.6875 -6.128906 6.597656 -6.003906 6.484375 -5.890625 C 6.367188 -5.785156 6.234375 -5.691406 6.078125 -5.609375 C 5.929688 -5.523438 5.785156 -5.445312 5.640625 -5.375 C 5.296875 -5.1875 4.929688 -5.019531 4.546875 -4.875 C 4.160156 -4.738281 3.773438 -4.609375 3.390625 -4.484375 C 3.367188 -4.390625 3.347656 -4.289062 3.328125 -4.1875 C 3.304688 -4.082031 3.296875 -3.984375 3.296875 -3.890625 C 3.296875 -3.734375 3.304688 -3.578125 3.328125 -3.421875 C 3.347656 -3.265625 3.367188 -3.113281 3.390625 -2.96875 C 3.523438 -3.007812 3.738281 -3.078125 4.03125 -3.171875 C 4.320312 -3.273438 4.625 -3.375 4.9375 -3.46875 C 5.257812 -3.570312 5.566406 -3.660156 5.859375 -3.734375 C 6.160156 -3.804688 6.378906 -3.84375 6.515625 -3.84375 C 6.679688 -3.84375 6.832031 -3.804688 6.96875 -3.734375 C 7.113281 -3.660156 7.234375 -3.566406 7.328125 -3.453125 C 7.429688 -3.335938 7.515625 -3.203125 7.578125 -3.046875 C 7.640625 -2.890625 7.671875 -2.734375 7.671875 -2.578125 Z M 7.671875 -2.578125 "/></g></g></g><g fill="#000000" fill-opacity="1"><g transform="translate(43.2186, 20.322582)"><g><path d="M 11.75 -1.796875 C 11.71875 -1.503906 11.671875 -1.222656 11.609375 -0.953125 C 11.554688 -0.679688 11.484375 -0.4375 11.390625 -0.21875 C 11.304688 -0.0078125 11.191406 0.15625 11.046875 0.28125 C 10.910156 0.414062 10.757812 0.484375 10.59375 0.484375 C 10.414062 0.484375 10.253906 0.347656 10.109375 0.078125 C 9.960938 -0.191406 9.828125 -0.546875 9.703125 -0.984375 C 9.578125 -1.429688 9.460938 -1.9375 9.359375 -2.5 C 9.253906 -3.0625 9.160156 -3.628906 9.078125 -4.203125 C 8.992188 -4.785156 8.925781 -5.347656 8.875 -5.890625 C 8.820312 -6.441406 8.78125 -6.921875 8.75 -7.328125 C 8.675781 -6.910156 8.59375 -6.441406 8.5 -5.921875 C 8.414062 -5.410156 8.3125 -4.890625 8.1875 -4.359375 C 8.070312 -3.828125 7.941406 -3.304688 7.796875 -2.796875 C 7.660156 -2.285156 7.507812 -1.828125 7.34375 -1.421875 C 7.175781 -1.023438 7 -0.703125 6.8125 -0.453125 C 6.625 -0.210938 6.425781 -0.09375 6.21875 -0.09375 C 6.03125 -0.09375 5.84375 -0.21875 5.65625 -0.46875 C 5.476562 -0.726562 5.300781 -1.0625 5.125 -1.46875 C 4.945312 -1.882812 4.78125 -2.34375 4.625 -2.84375 C 4.46875 -3.351562 4.320312 -3.863281 4.1875 -4.375 C 4.0625 -4.882812 3.945312 -5.363281 3.84375 -5.8125 C 3.75 -6.269531 3.675781 -6.65625 3.625 -6.96875 C 3.625 -6.738281 3.617188 -6.484375 3.609375 -6.203125 C 3.609375 -5.921875 3.609375 -5.71875 3.609375 -5.59375 C 3.609375 -5.539062 3.601562 -5.359375 3.59375 -5.046875 C 3.59375 -4.742188 3.570312 -4.378906 3.53125 -3.953125 C 3.5 -3.523438 3.453125 -3.066406 3.390625 -2.578125 C 3.328125 -2.085938 3.234375 -1.632812 3.109375 -1.21875 C 2.984375 -0.800781 2.828125 -0.445312 2.640625 -0.15625 C 2.453125 0.125 2.21875 0.273438 1.9375 0.296875 C 1.71875 0.191406 1.535156 0.0234375 1.390625 -0.203125 C 1.242188 -0.441406 1.117188 -0.71875 1.015625 -1.03125 C 0.921875 -1.351562 0.84375 -1.691406 0.78125 -2.046875 C 0.726562 -2.410156 0.6875 -2.765625 0.65625 -3.109375 C 0.625 -3.460938 0.601562 -3.785156 0.59375 -4.078125 C 0.59375 -4.378906 0.59375 -4.625 0.59375 -4.8125 C 0.59375 -5.132812 0.609375 -5.546875 0.640625 -6.046875 C 0.679688 -6.546875 0.742188 -7.070312 0.828125 -7.625 C 0.921875 -8.175781 1.039062 -8.722656 1.1875 -9.265625 C 1.332031 -9.816406 1.503906 -10.304688 1.703125 -10.734375 C 1.910156 -11.171875 2.144531 -11.523438 2.40625 -11.796875 C 2.675781 -12.078125 2.988281 -12.21875 3.34375 -12.21875 C 3.507812 -12.21875 3.6875 -12.125 3.875 -11.9375 C 4.0625 -11.75 4.242188 -11.503906 4.421875 -11.203125 C 4.609375 -10.898438 4.789062 -10.5625 4.96875 -10.1875 C 5.144531 -9.8125 5.3125 -9.4375 5.46875 -9.0625 C 5.632812 -8.6875 5.773438 -8.320312 5.890625 -7.96875 C 6.015625 -7.625 6.113281 -7.332031 6.1875 -7.09375 C 6.28125 -7.351562 6.390625 -7.660156 6.515625 -8.015625 C 6.648438 -8.367188 6.796875 -8.734375 6.953125 -9.109375 C 7.109375 -9.492188 7.28125 -9.867188 7.46875 -10.234375 C 7.664062 -10.597656 7.867188 -10.925781 8.078125 -11.21875 C 8.285156 -11.507812 8.492188 -11.742188 8.703125 -11.921875 C 8.921875 -12.109375 9.144531 -12.203125 9.375 -12.203125 C 9.75 -12.203125 10.070312 -12.054688 10.34375 -11.765625 C 10.625 -11.484375 10.859375 -11.113281 11.046875 -10.65625 C 11.234375 -10.207031 11.378906 -9.695312 11.484375 -9.125 C 11.597656 -8.5625 11.6875 -8.003906 11.75 -7.453125 C 11.8125 -6.898438 11.847656 -6.378906 11.859375 -5.890625 C 11.878906 -5.410156 11.890625 -5.019531 11.890625 -4.71875 C 11.890625 -4.601562 11.890625 -4.441406 11.890625 -4.234375 C 11.890625 -4.023438 11.882812 -3.785156 11.875 -3.515625 C 11.875 -3.253906 11.863281 -2.972656 11.84375 -2.671875 C 11.820312 -2.378906 11.789062 -2.085938 11.75 -1.796875 Z M 11.75 -1.796875 "/></g></g></g><g fill="#000000" fill-opacity="1"><g transform="translate(55.775553, 20.322582)"><g><path d="M 6.1875 -11.171875 C 6.1875 -10.960938 6.140625 -10.773438 6.046875 -10.609375 C 5.953125 -10.453125 5.828125 -10.316406 5.671875 -10.203125 C 5.523438 -10.085938 5.359375 -9.988281 5.171875 -9.90625 C 4.984375 -9.832031 4.800781 -9.78125 4.625 -9.75 C 4.601562 -8.507812 4.554688 -7.3125 4.484375 -6.15625 C 4.410156 -5 4.300781 -3.804688 4.15625 -2.578125 L 4.25 -2.578125 C 4.425781 -2.578125 4.597656 -2.554688 4.765625 -2.515625 C 4.929688 -2.484375 5.082031 -2.421875 5.21875 -2.328125 C 5.363281 -2.234375 5.476562 -2.117188 5.5625 -1.984375 C 5.644531 -1.847656 5.6875 -1.679688 5.6875 -1.484375 C 5.6875 -1.234375 5.601562 -1.015625 5.4375 -0.828125 C 5.28125 -0.640625 5.070312 -0.476562 4.8125 -0.34375 C 4.550781 -0.207031 4.257812 -0.0976562 3.9375 -0.015625 C 3.625 0.0664062 3.304688 0.132812 2.984375 0.1875 C 2.671875 0.238281 2.367188 0.273438 2.078125 0.296875 C 1.796875 0.316406 1.570312 0.328125 1.40625 0.328125 C 1.269531 0.328125 1.101562 0.320312 0.90625 0.3125 C 0.71875 0.300781 0.535156 0.265625 0.359375 0.203125 C 0.191406 0.148438 0.0507812 0.0703125 -0.0625 -0.03125 C -0.1875 -0.144531 -0.25 -0.296875 -0.25 -0.484375 C -0.25 -0.710938 -0.203125 -0.914062 -0.109375 -1.09375 C -0.015625 -1.269531 0.109375 -1.429688 0.265625 -1.578125 C 0.421875 -1.722656 0.59375 -1.835938 0.78125 -1.921875 C 0.96875 -2.015625 1.160156 -2.082031 1.359375 -2.125 C 1.441406 -2.726562 1.515625 -3.328125 1.578125 -3.921875 C 1.640625 -4.523438 1.6875 -5.132812 1.71875 -5.75 C 1.738281 -6.375 1.757812 -6.988281 1.78125 -7.59375 C 1.800781 -8.207031 1.820312 -8.820312 1.84375 -9.4375 C 1.769531 -9.425781 1.695312 -9.414062 1.625 -9.40625 C 1.5625 -9.40625 1.503906 -9.40625 1.453125 -9.40625 C 1.296875 -9.40625 1.128906 -9.421875 0.953125 -9.453125 C 0.773438 -9.484375 0.609375 -9.539062 0.453125 -9.625 C 0.304688 -9.707031 0.179688 -9.804688 0.078125 -9.921875 C -0.0234375 -10.046875 -0.078125 -10.203125 -0.078125 -10.390625 C -0.078125 -10.765625 0.078125 -11.070312 0.390625 -11.3125 C 0.703125 -11.550781 1.070312 -11.734375 1.5 -11.859375 C 1.9375 -11.992188 2.378906 -12.085938 2.828125 -12.140625 C 3.273438 -12.191406 3.640625 -12.21875 3.921875 -12.21875 C 4.078125 -12.21875 4.28125 -12.207031 4.53125 -12.1875 C 4.78125 -12.164062 5.023438 -12.113281 5.265625 -12.03125 C 5.515625 -11.957031 5.726562 -11.851562 5.90625 -11.71875 C 6.09375 -11.59375 6.1875 -11.410156 6.1875 -11.171875 Z M 6.1875 -11.171875 "/></g></g></g><g fill="#000000" fill-opacity="1"><g transform="translate(61.700196, 20.322582)"><g><path d="M 10.078125 -7.0625 C 10.078125 -6.820312 10.066406 -6.476562 10.046875 -6.03125 C 10.023438 -5.59375 9.984375 -5.101562 9.921875 -4.5625 C 9.859375 -4.03125 9.769531 -3.488281 9.65625 -2.9375 C 9.550781 -2.382812 9.410156 -1.878906 9.234375 -1.421875 C 9.054688 -0.972656 8.84375 -0.601562 8.59375 -0.3125 C 8.34375 -0.03125 8.039062 0.109375 7.6875 0.109375 C 7.351562 0.109375 7.050781 0.015625 6.78125 -0.171875 C 6.507812 -0.367188 6.265625 -0.601562 6.046875 -0.875 C 5.828125 -1.15625 5.632812 -1.453125 5.46875 -1.765625 C 5.300781 -2.085938 5.160156 -2.382812 5.046875 -2.65625 C 4.816406 -3.207031 4.585938 -3.753906 4.359375 -4.296875 C 4.128906 -4.847656 3.910156 -5.398438 3.703125 -5.953125 L 3.703125 -5.5 C 3.703125 -5.03125 3.695312 -4.5625 3.6875 -4.09375 C 3.6875 -3.625 3.65625 -3.160156 3.59375 -2.703125 C 3.570312 -2.515625 3.546875 -2.296875 3.515625 -2.046875 C 3.484375 -1.796875 3.441406 -1.550781 3.390625 -1.3125 C 3.335938 -1.070312 3.257812 -0.847656 3.15625 -0.640625 C 3.050781 -0.429688 2.910156 -0.28125 2.734375 -0.1875 C 2.628906 -0.125 2.535156 -0.0859375 2.453125 -0.078125 C 2.378906 -0.0664062 2.289062 -0.0507812 2.1875 -0.03125 L 2.140625 -0.03125 C 1.890625 -0.03125 1.675781 -0.113281 1.5 -0.28125 C 1.320312 -0.457031 1.171875 -0.675781 1.046875 -0.9375 C 0.929688 -1.207031 0.835938 -1.507812 0.765625 -1.84375 C 0.691406 -2.1875 0.632812 -2.519531 0.59375 -2.84375 C 0.5625 -3.164062 0.539062 -3.460938 0.53125 -3.734375 C 0.519531 -4.015625 0.515625 -4.234375 0.515625 -4.390625 C 0.515625 -4.648438 0.523438 -5.019531 0.546875 -5.5 C 0.566406 -5.988281 0.613281 -6.53125 0.6875 -7.125 C 0.757812 -7.71875 0.851562 -8.328125 0.96875 -8.953125 C 1.082031 -9.578125 1.234375 -10.144531 1.421875 -10.65625 C 1.609375 -11.164062 1.832031 -11.582031 2.09375 -11.90625 C 2.351562 -12.226562 2.660156 -12.390625 3.015625 -12.390625 C 3.347656 -12.390625 3.648438 -12.257812 3.921875 -12 C 4.191406 -11.738281 4.429688 -11.425781 4.640625 -11.0625 C 4.847656 -10.695312 5.023438 -10.316406 5.171875 -9.921875 C 5.316406 -9.523438 5.4375 -9.195312 5.53125 -8.9375 C 5.71875 -8.425781 5.898438 -7.914062 6.078125 -7.40625 C 6.253906 -6.894531 6.421875 -6.375 6.578125 -5.84375 C 6.597656 -5.820312 6.625 -5.757812 6.65625 -5.65625 C 6.6875 -5.5625 6.722656 -5.453125 6.765625 -5.328125 C 6.804688 -5.203125 6.863281 -5.054688 6.9375 -4.890625 C 6.9375 -5.035156 6.929688 -5.132812 6.921875 -5.1875 C 6.921875 -5.25 6.921875 -5.304688 6.921875 -5.359375 C 6.921875 -5.410156 6.921875 -5.472656 6.921875 -5.546875 C 6.921875 -5.617188 6.921875 -5.738281 6.921875 -5.90625 C 6.910156 -6.269531 6.898438 -6.632812 6.890625 -7 C 6.878906 -7.363281 6.875 -7.71875 6.875 -8.0625 C 6.875 -8.21875 6.878906 -8.429688 6.890625 -8.703125 C 6.898438 -8.984375 6.914062 -9.28125 6.9375 -9.59375 C 6.96875 -9.90625 7.007812 -10.21875 7.0625 -10.53125 C 7.113281 -10.851562 7.191406 -11.140625 7.296875 -11.390625 C 7.398438 -11.648438 7.53125 -11.863281 7.6875 -12.03125 C 7.851562 -12.195312 8.050781 -12.28125 8.28125 -12.28125 C 8.550781 -12.28125 8.785156 -12.175781 8.984375 -11.96875 C 9.179688 -11.757812 9.347656 -11.492188 9.484375 -11.171875 C 9.617188 -10.847656 9.722656 -10.484375 9.796875 -10.078125 C 9.867188 -9.679688 9.925781 -9.289062 9.96875 -8.90625 C 10.019531 -8.519531 10.050781 -8.160156 10.0625 -7.828125 C 10.070312 -7.503906 10.078125 -7.25 10.078125 -7.0625 Z M 10.078125 -7.0625 "/></g></g></g><g fill="#000000" fill-opacity="1"><g transform="translate(72.364554, 20.322582)"><g><path d="M 8.96875 -7.40625 C 8.96875 -6.4375 8.769531 -5.503906 8.375 -4.609375 C 7.976562 -3.722656 7.445312 -2.929688 6.78125 -2.234375 C 6.125 -1.546875 5.351562 -0.992188 4.46875 -0.578125 C 3.582031 -0.171875 2.648438 0.03125 1.671875 0.03125 L 1.640625 0.03125 C 1.441406 0.03125 1.28125 -0.0546875 1.15625 -0.234375 C 1.03125 -0.421875 0.921875 -0.648438 0.828125 -0.921875 C 0.742188 -1.191406 0.679688 -1.5 0.640625 -1.84375 C 0.597656 -2.1875 0.566406 -2.519531 0.546875 -2.84375 C 0.523438 -3.164062 0.515625 -3.453125 0.515625 -3.703125 C 0.515625 -3.960938 0.515625 -4.160156 0.515625 -4.296875 C 0.515625 -4.671875 0.519531 -5.039062 0.53125 -5.40625 C 0.539062 -5.769531 0.554688 -6.140625 0.578125 -6.515625 C 0.578125 -6.640625 0.582031 -6.816406 0.59375 -7.046875 C 0.613281 -7.285156 0.632812 -7.550781 0.65625 -7.84375 C 0.675781 -8.144531 0.703125 -8.457031 0.734375 -8.78125 C 0.773438 -9.101562 0.8125 -9.40625 0.84375 -9.6875 C 0.882812 -9.96875 0.921875 -10.210938 0.953125 -10.421875 C 0.992188 -10.640625 1.046875 -10.785156 1.109375 -10.859375 C 1.242188 -11.109375 1.457031 -11.320312 1.75 -11.5 C 2.050781 -11.6875 2.375 -11.84375 2.71875 -11.96875 C 3.070312 -12.09375 3.425781 -12.179688 3.78125 -12.234375 C 4.132812 -12.296875 4.441406 -12.328125 4.703125 -12.328125 C 5.429688 -12.328125 6.0625 -12.191406 6.59375 -11.921875 C 7.125 -11.660156 7.566406 -11.300781 7.921875 -10.84375 C 8.285156 -10.382812 8.550781 -9.859375 8.71875 -9.265625 C 8.882812 -8.671875 8.96875 -8.050781 8.96875 -7.40625 Z M 6.203125 -6.9375 C 6.203125 -7.175781 6.15625 -7.421875 6.0625 -7.671875 C 5.976562 -7.921875 5.859375 -8.148438 5.703125 -8.359375 C 5.546875 -8.566406 5.351562 -8.734375 5.125 -8.859375 C 4.90625 -8.992188 4.65625 -9.0625 4.375 -9.0625 C 4.144531 -9.0625 3.910156 -9.003906 3.671875 -8.890625 C 3.617188 -8.859375 3.566406 -8.753906 3.515625 -8.578125 C 3.472656 -8.410156 3.4375 -8.207031 3.40625 -7.96875 C 3.382812 -7.726562 3.363281 -7.460938 3.34375 -7.171875 C 3.320312 -6.890625 3.304688 -6.617188 3.296875 -6.359375 C 3.296875 -6.097656 3.289062 -5.867188 3.28125 -5.671875 C 3.28125 -5.484375 3.28125 -5.351562 3.28125 -5.28125 C 3.28125 -5.175781 3.28125 -5.015625 3.28125 -4.796875 C 3.28125 -4.585938 3.285156 -4.378906 3.296875 -4.171875 C 3.316406 -3.960938 3.335938 -3.78125 3.359375 -3.625 C 3.378906 -3.46875 3.414062 -3.390625 3.46875 -3.390625 C 3.800781 -3.390625 4.128906 -3.519531 4.453125 -3.78125 C 4.773438 -4.039062 5.066406 -4.351562 5.328125 -4.71875 C 5.597656 -5.09375 5.8125 -5.484375 5.96875 -5.890625 C 6.125 -6.296875 6.203125 -6.644531 6.203125 -6.9375 Z M 6.203125 -6.9375 "/></g></g></g><g fill="#000000" fill-opacity="1"><g transform="translate(81.580665, 20.322582)"><g><path d="M 7.703125 -3.8125 C 7.703125 -3.195312 7.582031 -2.628906 7.34375 -2.109375 C 7.101562 -1.597656 6.78125 -1.15625 6.375 -0.78125 C 5.96875 -0.40625 5.492188 -0.113281 4.953125 0.09375 C 4.421875 0.3125 3.863281 0.421875 3.28125 0.421875 C 3.0625 0.421875 2.785156 0.398438 2.453125 0.359375 C 2.128906 0.328125 1.820312 0.253906 1.53125 0.140625 C 1.238281 0.0351562 0.988281 -0.109375 0.78125 -0.296875 C 0.570312 -0.484375 0.46875 -0.722656 0.46875 -1.015625 C 0.46875 -1.335938 0.550781 -1.585938 0.71875 -1.765625 C 0.882812 -1.941406 1.128906 -2.03125 1.453125 -2.03125 C 1.765625 -2.03125 2.070312 -2 2.375 -1.9375 C 2.675781 -1.875 2.988281 -1.84375 3.3125 -1.84375 C 3.550781 -1.84375 3.789062 -1.878906 4.03125 -1.953125 C 4.269531 -2.035156 4.484375 -2.148438 4.671875 -2.296875 C 4.867188 -2.441406 5.023438 -2.613281 5.140625 -2.8125 C 5.265625 -3.019531 5.328125 -3.253906 5.328125 -3.515625 C 5.328125 -3.660156 5.300781 -3.835938 5.25 -4.046875 C 5.195312 -4.253906 5.117188 -4.445312 5.015625 -4.625 C 4.921875 -4.8125 4.800781 -4.96875 4.65625 -5.09375 C 4.519531 -5.226562 4.363281 -5.296875 4.1875 -5.296875 C 4.019531 -5.296875 3.851562 -5.269531 3.6875 -5.21875 C 3.53125 -5.164062 3.367188 -5.109375 3.203125 -5.046875 C 3.035156 -4.984375 2.863281 -4.925781 2.6875 -4.875 C 2.507812 -4.820312 2.328125 -4.796875 2.140625 -4.796875 C 1.898438 -4.796875 1.722656 -4.894531 1.609375 -5.09375 C 1.492188 -5.300781 1.4375 -5.503906 1.4375 -5.703125 C 1.4375 -6.160156 1.644531 -6.472656 2.0625 -6.640625 C 2.28125 -6.722656 2.554688 -6.835938 2.890625 -6.984375 C 3.222656 -7.140625 3.546875 -7.3125 3.859375 -7.5 C 4.179688 -7.695312 4.457031 -7.921875 4.6875 -8.171875 C 4.914062 -8.421875 5.03125 -8.6875 5.03125 -8.96875 C 5.03125 -9.1875 4.941406 -9.398438 4.765625 -9.609375 C 4.597656 -9.816406 4.394531 -9.921875 4.15625 -9.921875 C 3.90625 -9.921875 3.675781 -9.851562 3.46875 -9.71875 C 3.257812 -9.59375 3.050781 -9.453125 2.84375 -9.296875 C 2.644531 -9.140625 2.4375 -8.992188 2.21875 -8.859375 C 2.007812 -8.722656 1.785156 -8.65625 1.546875 -8.65625 C 1.421875 -8.65625 1.289062 -8.679688 1.15625 -8.734375 C 1.03125 -8.785156 0.910156 -8.851562 0.796875 -8.9375 C 0.691406 -9.019531 0.601562 -9.117188 0.53125 -9.234375 C 0.457031 -9.359375 0.421875 -9.484375 0.421875 -9.609375 C 0.421875 -9.765625 0.453125 -9.925781 0.515625 -10.09375 C 0.585938 -10.257812 0.664062 -10.398438 0.75 -10.515625 C 1.125 -11.085938 1.617188 -11.515625 2.234375 -11.796875 C 2.859375 -12.085938 3.503906 -12.234375 4.171875 -12.234375 C 5.179688 -12.234375 5.984375 -11.957031 6.578125 -11.40625 C 7.171875 -10.863281 7.46875 -10.09375 7.46875 -9.09375 C 7.46875 -8.5 7.34375 -7.972656 7.09375 -7.515625 C 6.851562 -7.066406 6.4375 -6.742188 5.84375 -6.546875 C 6.164062 -6.484375 6.441406 -6.359375 6.671875 -6.171875 C 6.910156 -5.992188 7.101562 -5.78125 7.25 -5.53125 C 7.40625 -5.28125 7.519531 -5.003906 7.59375 -4.703125 C 7.664062 -4.410156 7.703125 -4.113281 7.703125 -3.8125 Z M 7.703125 -3.8125 "/></g></g></g><g fill="#000000" fill-opacity="1"><g transform="translate(89.792879, 20.322582)"><g><path d="M 8.53125 -8.65625 C 8.53125 -7.90625 8.351562 -7.226562 8 -6.625 C 7.644531 -6.019531 7.179688 -5.484375 6.609375 -5.015625 C 6.773438 -4.753906 6.953125 -4.445312 7.140625 -4.09375 C 7.328125 -3.75 7.492188 -3.378906 7.640625 -2.984375 C 7.796875 -2.597656 7.921875 -2.207031 8.015625 -1.8125 C 8.109375 -1.425781 8.15625 -1.066406 8.15625 -0.734375 C 8.15625 -0.390625 8.066406 -0.078125 7.890625 0.203125 C 7.722656 0.484375 7.4375 0.625 7.03125 0.625 C 6.6875 0.625 6.390625 0.457031 6.140625 0.125 C 5.898438 -0.195312 5.679688 -0.585938 5.484375 -1.046875 C 5.296875 -1.503906 5.117188 -1.96875 4.953125 -2.4375 C 4.796875 -2.90625 4.648438 -3.285156 4.515625 -3.578125 C 4.316406 -3.503906 4.125 -3.425781 3.9375 -3.34375 C 3.75 -3.269531 3.554688 -3.191406 3.359375 -3.109375 C 3.347656 -2.867188 3.328125 -2.535156 3.296875 -2.109375 C 3.273438 -1.691406 3.21875 -1.273438 3.125 -0.859375 C 3.03125 -0.441406 2.890625 -0.0820312 2.703125 0.21875 C 2.515625 0.53125 2.253906 0.6875 1.921875 0.6875 C 1.566406 0.6875 1.289062 0.535156 1.09375 0.234375 C 0.894531 -0.0546875 0.753906 -0.40625 0.671875 -0.8125 C 0.585938 -1.21875 0.539062 -1.628906 0.53125 -2.046875 C 0.519531 -2.472656 0.515625 -2.804688 0.515625 -3.046875 C 0.515625 -3.554688 0.523438 -4.0625 0.546875 -4.5625 C 0.566406 -5.0625 0.578125 -5.570312 0.578125 -6.09375 C 0.578125 -6.5625 0.566406 -7.03125 0.546875 -7.5 C 0.535156 -7.976562 0.53125 -8.457031 0.53125 -8.9375 C 0.53125 -9.050781 0.53125 -9.191406 0.53125 -9.359375 C 0.53125 -9.523438 0.535156 -9.695312 0.546875 -9.875 C 0.566406 -10.0625 0.585938 -10.238281 0.609375 -10.40625 C 0.628906 -10.570312 0.664062 -10.703125 0.71875 -10.796875 C 0.832031 -11.023438 1.082031 -11.242188 1.46875 -11.453125 C 1.863281 -11.660156 2.289062 -11.84375 2.75 -12 C 3.21875 -12.164062 3.675781 -12.296875 4.125 -12.390625 C 4.570312 -12.484375 4.90625 -12.53125 5.125 -12.53125 C 5.675781 -12.53125 6.164062 -12.425781 6.59375 -12.21875 C 7.03125 -12.007812 7.390625 -11.722656 7.671875 -11.359375 C 7.953125 -11.003906 8.164062 -10.59375 8.3125 -10.125 C 8.457031 -9.664062 8.53125 -9.175781 8.53125 -8.65625 Z M 5.484375 -8.4375 C 5.484375 -8.71875 5.414062 -8.929688 5.28125 -9.078125 C 5.15625 -9.222656 4.941406 -9.296875 4.640625 -9.296875 C 4.421875 -9.296875 4.195312 -9.257812 3.96875 -9.1875 C 3.75 -9.113281 3.546875 -9.023438 3.359375 -8.921875 C 3.398438 -8.054688 3.414062 -7.195312 3.40625 -6.34375 C 3.632812 -6.414062 3.867188 -6.507812 4.109375 -6.625 C 4.359375 -6.75 4.582031 -6.898438 4.78125 -7.078125 C 4.988281 -7.253906 5.15625 -7.453125 5.28125 -7.671875 C 5.414062 -7.890625 5.484375 -8.144531 5.484375 -8.4375 Z M 5.484375 -8.4375 "/></g></g></g><path fill="#000000" d="M 12.328125 8.453125 C 11.964844 8.453125 11.667969 8.75 11.667969 9.117188 L 11.667969 14.832031 L 8.941406 13.546875 C 8.609375 13.390625 8.214844 13.53125 8.058594 13.863281 C 7.902344 14.191406 8.042969 14.585938 8.375 14.742188 L 12.046875 16.476562 C 12.050781 16.476562 12.054688 16.476562 12.058594 16.480469 C 12.089844 16.492188 12.121094 16.503906 12.15625 16.511719 C 12.167969 16.515625 12.179688 16.519531 12.191406 16.523438 C 12.226562 16.53125 12.265625 16.535156 12.304688 16.535156 C 12.3125 16.535156 12.320312 16.539062 12.328125 16.539062 C 12.367188 16.539062 12.40625 16.535156 12.445312 16.527344 C 12.457031 16.523438 12.46875 16.523438 12.480469 16.519531 C 12.511719 16.511719 12.539062 16.503906 12.570312 16.492188 C 12.578125 16.488281 12.585938 16.488281 12.589844 16.484375 C 12.625 16.46875 12.660156 16.449219 12.691406 16.429688 C 12.699219 16.425781 12.707031 16.417969 12.714844 16.414062 C 12.738281 16.394531 12.761719 16.375 12.785156 16.355469 C 12.792969 16.347656 12.796875 16.34375 12.804688 16.335938 C 12.828125 16.308594 12.855469 16.28125 12.875 16.25 C 12.875 16.25 12.878906 16.246094 12.878906 16.246094 C 12.898438 16.21875 12.914062 16.1875 12.929688 16.160156 C 12.929688 16.15625 12.929688 16.148438 12.933594 16.148438 C 12.941406 16.125 12.949219 16.101562 12.957031 16.078125 C 12.960938 16.058594 12.96875 16.039062 12.972656 16.019531 C 12.976562 16 12.980469 15.980469 12.980469 15.964844 C 12.984375 15.9375 12.988281 15.914062 12.988281 15.886719 C 12.988281 15.882812 12.992188 15.878906 12.992188 15.875 L 12.992188 9.117188 C 12.992188 8.75 12.695312 8.453125 12.328125 8.453125 Z M 12.328125 8.453125 " fill-opacity="1" fill-rule="nonzero"/><g clip-path="url(#id1)"><path fill="#000000" d="M 12.328125 4.402344 C 6.777344 4.402344 2.257812 8.921875 2.257812 14.472656 C 2.257812 20.027344 6.777344 24.542969 12.328125 24.542969 C 17.882812 24.542969 22.398438 20.027344 22.398438 14.472656 C 22.398438 8.921875 17.882812 4.402344 12.328125 4.402344 Z M 12.328125 23.550781 C 7.324219 23.550781 3.25 19.480469 3.25 14.472656 C 3.25 9.46875 7.324219 5.398438 12.328125 5.398438 C 17.332031 5.398438 21.40625 9.46875 21.40625 14.472656 C 21.40625 19.480469 17.332031 23.550781 12.328125 23.550781 Z M 12.328125 23.550781 " fill-opacity="1" fill-rule="nonzero"/></g></svg>