<svg xmlns="http://www.w3.org/2000/svg" viewBox="0 0 420.81 388.28"><defs><style>.cls-1{fill:#ebebeb;}.cls-2{fill:#f0f0f0;}.cls-3{fill:#f5f5f5;}.cls-4{fill:#e0e0e0;}.cls-11,.cls-13,.cls-17,.cls-18,.cls-5,.cls-8{fill:#fff;}.cls-6{fill:#e6e6e6;}.cls-15,.cls-16,.cls-7{fill:#407bff;}.cls-8{opacity:0.9;}.cls-9{fill:#263238;}.cls-10{fill:#ffc3bd;}.cls-11,.cls-19{opacity:0.1;}.cls-12,.cls-17{opacity:0.2;}.cls-13{opacity:0.5;}.cls-14{fill:#ed847e;}.cls-15{opacity:0.4;}.cls-16,.cls-18{opacity:0.3;}.cls-20{fill:#de5753;}</style></defs><g id="Background_Complete" data-name="Background Complete"><rect class="cls-1" x="-38.21" y="327.45" width="500" height="0.25"/><rect class="cls-1" x="14.25" y="334.26" width="37.04" height="0.25"/><rect class="cls-1" x="130.79" y="339.67" width="71" height="0.25"/><rect class="cls-1" x="56.71" y="334.38" width="50.75" height="0.25"/><rect class="cls-1" x="368.57" y="341.86" width="48.67" height="0.25"/><rect class="cls-1" x="332.15" y="341.86" width="31.97" height="0.25"/><rect class="cls-1" x="239.01" y="337.64" width="62.01" height="0.25"/><path class="cls-1" d="M198.81,282.85H5.71A5.71,5.71,0,0,1,0,277.14V5.71A5.71,5.71,0,0,1,5.71,0h193.1a5.71,5.71,0,0,1,5.7,5.71V277.14A5.71,5.71,0,0,1,198.81,282.85ZM5.71.25A5.47,5.47,0,0,0,.25,5.71V277.14a5.47,5.47,0,0,0,5.46,5.46h193.1a5.46,5.46,0,0,0,5.45-5.46V5.71A5.46,5.46,0,0,0,198.81.25Z"/><path class="cls-1" d="M415.1,282.85H222a5.71,5.71,0,0,1-5.7-5.71V5.71A5.71,5.71,0,0,1,222,0H415.1a5.71,5.71,0,0,1,5.71,5.71V277.14A5.71,5.71,0,0,1,415.1,282.85ZM222,.25a5.46,5.46,0,0,0-5.45,5.46V277.14A5.46,5.46,0,0,0,222,282.6H415.1a5.47,5.47,0,0,0,5.46-5.46V5.71A5.47,5.47,0,0,0,415.1.25Z"/><path class="cls-2" d="M305.67,226.85h78a13.72,13.72,0,0,1,13.72,13.72v70.08a13.72,13.72,0,0,1-13.72,13.72h-78a0,0,0,0,1,0,0V226.85A0,0,0,0,1,305.67,226.85Z" transform="translate(703.08 551.22) rotate(180)"/><rect class="cls-3" x="383.05" y="226.85" width="28.73" height="97.52" rx="13.72" transform="translate(794.83 551.22) rotate(-180)"/><rect class="cls-2" x="216.04" y="262.82" width="170.92" height="61.55"/><path class="cls-4" d="M395.33,327.45H142.71a2.81,2.81,0,0,1-2.81-2.82v-.26H319.35l78.79.26A2.81,2.81,0,0,1,395.33,327.45Z"/><path class="cls-4" d="M159,186.39H322.87A19.13,19.13,0,0,1,342,205.52v71.21a0,0,0,0,1,0,0H139.9a0,0,0,0,1,0,0V205.52A19.13,19.13,0,0,1,159,186.39Z"/><path class="cls-3" d="M172.15,186.39H337.84A18.21,18.21,0,0,1,356,204.6v72.14a0,0,0,0,1,0,0H153.94a0,0,0,0,1,0,0V204.6A18.21,18.21,0,0,1,172.15,186.39Z"/><path class="cls-4" d="M378.8,257.2H229.05a8.64,8.64,0,0,0-8.64,8.64v7.79a8.63,8.63,0,0,0,8.64,8.63H378.8a12.53,12.53,0,0,0,12.54-12.53h0A12.53,12.53,0,0,0,378.8,257.2Z"/><path class="cls-2" d="M123.86,226.85h78a13.72,13.72,0,0,1,13.72,13.72v70.08a13.72,13.72,0,0,1-13.72,13.72h-78a0,0,0,0,1,0,0V226.85A0,0,0,0,1,123.86,226.85Z" transform="translate(339.46 551.22) rotate(180)"/><rect class="cls-3" x="201.23" y="226.85" width="28.73" height="97.52" rx="13.72" transform="translate(431.2 551.22) rotate(180)"/><rect class="cls-4" x="292.22" y="37.56" width="70.63" height="103.86"/><rect class="cls-3" x="294.15" y="37.56" width="72.95" height="103.86"/><rect class="cls-5" x="286.88" y="59.13" width="87.49" height="60.73" transform="translate(241.13 420.12) rotate(-90)"/><path class="cls-3" d="M323.07,93.72v6.66h0a15.11,15.11,0,0,0,15.11-15.11V78.6h0A15.12,15.12,0,0,0,323.07,93.72Z"/><path class="cls-3" d="M323.07,71.26v6.66h0A15.11,15.11,0,0,0,338.18,62.8V56.14h0A15.12,15.12,0,0,0,323.07,71.26Z"/><path class="cls-3" d="M323.07,116.18v6.66h0a15.1,15.1,0,0,0,15.11-15.11v-6.66h0A15.11,15.11,0,0,0,323.07,116.18Z"/><rect class="cls-1" x="105.98" y="-32.94" width="73.28" height="230.66" transform="translate(225.01 -60.24) rotate(90)"/><rect class="cls-4" x="-10.04" y="81.69" width="73.28" height="1.39" transform="translate(108.99 55.79) rotate(90)"/><rect class="cls-3" x="38.67" y="57.12" width="207.92" height="50.54"/><polygon class="cls-5" points="88.49 107.66 71.22 107.66 84.74 57.12 102.01 57.12 88.49 107.66"/><polygon class="cls-5" points="104.55 107.66 94.57 107.66 108.09 57.12 118.07 57.12 104.55 107.66"/><polygon class="cls-5" points="191.48 107.66 181.5 107.66 195.02 57.12 205 57.12 191.48 107.66"/><polygon class="cls-6" points="117.12 243.64 61.2 243.64 54.28 167.68 110.2 167.68 117.12 243.64"/><polygon class="cls-2" points="120.01 243.64 64.09 243.64 57.18 167.68 113.1 167.68 120.01 243.64"/><polygon class="cls-5" points="71.74 235.23 66.36 176.09 105.45 176.09 110.84 235.23 71.74 235.23"/><rect class="cls-6" x="151.49" y="243.64" width="7.53" height="83.8"/><rect class="cls-3" x="156.17" y="243.64" width="5.23" height="83.8"/><rect class="cls-3" x="83.55" y="243.64" width="79.46" height="9.25" transform="translate(246.57 496.53) rotate(180)"/><rect class="cls-6" x="72.66" y="252.89" width="7.53" height="74.56"/><rect class="cls-3" x="77.33" y="252.89" width="5.23" height="74.56"/><rect class="cls-6" x="25.02" y="252.89" width="7.53" height="74.56"/><rect class="cls-3" x="29.69" y="252.89" width="5.23" height="74.56"/><rect class="cls-6" x="103.85" y="252.89" width="7.53" height="74.56"/><rect class="cls-3" x="108.53" y="252.89" width="5.23" height="74.56"/><rect class="cls-6" x="25.02" y="243.64" width="58.54" height="9.25"/></g><g id="Background_Simple" data-name="Background Simple"><path class="cls-7" d="M230.51,90.6C175.87,147.47,51.37,95.33,48,206.44c-3.26,106.46,135.57,101.13,204.7,78.4,80.15-26.35,143.7-99.56,118.59-186.6C361.57,64.63,339.82,32,302.67,26.32,243.33,17.29,259.47,60.46,230.51,90.6Z"/><path class="cls-8" d="M230.51,90.6C175.87,147.47,51.37,95.33,48,206.44c-3.26,106.46,135.57,101.13,204.7,78.4,80.15-26.35,143.7-99.56,118.59-186.6C361.57,64.63,339.82,32,302.67,26.32,243.33,17.29,259.47,60.46,230.51,90.6Z"/></g><g id="Shadow"><ellipse id="_Path_" data-name="&lt;Path&gt;" class="cls-3" cx="211.79" cy="361.29" rx="193.89" ry="11.32"/></g><g id="Character"><path class="cls-9" d="M290.15,81c-3.82-2.4-14.79,0-13,12S264.87,102,268,116s28.07,34.7,43.46,20.62,2.43-20.3,2.71-37C314.29,89.63,309.79,71.85,290.15,81Z"/><path class="cls-9" d="M312.83,136a.25.25,0,0,1-.18-.08.25.25,0,0,1,0-.36c9.48-9.42,7.29-15.16,4.52-22.43-1.53-4-3.27-8.56-3.41-14.47-.16-6.37-2.49-15.08-8.55-18.67-4.31-2.55-9.82-2.11-16.4,1.3a.26.26,0,0,1-.35-.1.27.27,0,0,1,.11-.35c6.75-3.5,12.43-3.93,16.9-1.29,6.25,3.69,8.64,12.6,8.8,19.1.14,5.82,1.86,10.33,3.38,14.3,2.84,7.44,5.08,13.31-4.64,23A.27.27,0,0,1,312.83,136Z"/><path class="cls-10" d="M315,134.59s.16.23.27.38l.41.54c.29.37.59.74.92,1.11a28.8,28.8,0,0,0,2.14,2.14,36,36,0,0,0,5,3.81,50.84,50.84,0,0,0,5.63,3.09c1,.49,2,.87,3,1.32.19.09,0,0-.12.08s-.24.15-.14.09a4.27,4.27,0,0,0,1.15-1.53,20,20,0,0,0,1.12-2.74,54.21,54.21,0,0,0,1.63-6.36c.45-2.2.8-4.46,1.11-6.72s.59-4.58.84-6.82l4.07,0a91.83,91.83,0,0,1-.1,14.36,50.78,50.78,0,0,1-1.13,7.35,24.12,24.12,0,0,1-1.25,3.84,11.29,11.29,0,0,1-2.85,4.15,6.74,6.74,0,0,1-3.26,1.57,7,7,0,0,1-3.55-.3c-1.18-.42-2.37-.78-3.53-1.25a50.85,50.85,0,0,1-6.82-3.29,43.81,43.81,0,0,1-6.27-4.52,33.76,33.76,0,0,1-2.8-2.81c-.45-.5-.88-1-1.31-1.58l-.62-.88c-.22-.34-.37-.56-.67-1.1Z"/><path class="cls-9" d="M313.64,130.88c9.36,6,8.59,9.65,8.59,9.65L316.36,149s-15-6-15.93-10.71C299.44,133.43,309.11,128,313.64,130.88Z"/><path class="cls-11" d="M313.64,130.88c9.36,6,8.59,9.65,8.59,9.65L316.36,149s-15-6-15.93-10.71C299.44,133.43,309.11,128,313.64,130.88Z"/><path class="cls-7" d="M322.74,139.69h0a.79.79,0,0,1,.2,1.12l-6,8.61a.8.8,0,0,1-1.11.2h0a.8.8,0,0,1-.2-1.12l6-8.61A.8.8,0,0,1,322.74,139.69Z"/><path class="cls-10" d="M338.62,124.94l-4.63-6.2,8.89-2.29s1.82,5.52-1.14,9.56Z"/><polygon class="cls-10" points="334.23 111.12 341.64 109.87 342.88 116.44 333.99 118.74 334.23 111.12"/><polygon class="cls-10" points="258.83 352.64 267.32 353.46 273.38 333.53 264.89 332.71 258.83 352.64"/><polygon class="cls-10" points="204.89 323.18 211.18 329.08 224.76 314.16 218.47 308.25 204.89 323.18"/><path class="cls-9" d="M214.08,326.25l-4.73-8.52a.67.67,0,0,0-.85-.31l-7.27,2.77a1.38,1.38,0,0,0-.68,2c1.7,2.94,2.67,4.27,4.75,8,1.28,2.3,3.77,7.59,5.53,10.77s5,1.6,4.56.12c-2-6.65-1.64-10.35-1.07-13.29A2.28,2.28,0,0,0,214.08,326.25Z"/><path class="cls-9" d="M268.32,350.87H258a.86.86,0,0,0-.82.63L255,359.64a1.27,1.27,0,0,0,1.25,1.62c3.63,0,5.34,0,9.87,0h13.82c3.76,0,4.54-3.8,3-4.14-7-1.54-11-3.67-13.14-5.7A2.11,2.11,0,0,0,268.32,350.87Z"/><polygon class="cls-12" points="273.38 333.54 270.25 343.81 261.52 343.81 264.89 332.72 273.38 333.54"/><polygon class="cls-12" points="218.46 308.26 224.75 314.16 217.75 321.85 211.46 315.94 218.46 308.26"/><path class="cls-9" d="M313.64,130.88S317,133.2,295.49,180l-33.93-9.4c4.39-13.65,6.77-22.16,8-52.33a103.77,103.77,0,0,1,14.94,2.09,111,111,0,0,1,15.41,4.27A147.21,147.21,0,0,1,313.64,130.88Z"/><path class="cls-11" d="M313.64,130.88S317,133.2,295.49,180l-33.93-9.4c4.39-13.65,6.77-22.16,8-52.33a103.77,103.77,0,0,1,14.94,2.09,111,111,0,0,1,15.41,4.27A147.21,147.21,0,0,1,313.64,130.88Z"/><path class="cls-10" d="M290.84,103.45c-.4,5.23-1.95,14.58-6.33,16.93,0,0-2.55,8.67,8.52,11.85,9.36,2.7,6.89-7.58,6.89-7.58-5.17-2.86-2-7.91-1-13.56Z"/><path class="cls-12" d="M290.84,103.45c-.32,4.2-1.38,11.08-4.07,14.82,3.12.31,8.05-.65,9.44-3A34.64,34.64,0,0,0,298,110.2Z"/><path class="cls-10" d="M304.56,95.88c0,8.6.15,12.24-3.92,16.9-6.12,7-16.69,5.09-19.23-3.35-2.3-7.59-1.87-20.39,6.32-24.29A11.73,11.73,0,0,1,304.56,95.88Z"/><path class="cls-9" d="M286.77,91.11c4.83,6.75,21.08,16.13,22.17,7.09s-7.21-18-15.43-17.12S282.66,85.37,286.77,91.11Z"/><path class="cls-10" d="M308.13,103.91a6.3,6.3,0,0,1-3.61,3.17c-2.1.69-3.25-1.16-2.75-3.19.44-1.82,2.07-4.38,4.21-4.2A2.83,2.83,0,0,1,308.13,103.91Z"/><path class="cls-7" d="M295.49,180S307.57,229,299.65,266c-5.31,24.79-24.44,74.87-24.44,74.87l-15-.38s14.48-52.56,17.48-73.23c5.12-35.35-7.08-94.08-7.08-94.08Z"/><path class="cls-12" d="M282,187.05l-7.48,11.8a361,361,0,0,1,4.28,42.26C289.34,222.27,284.36,197,282,187.05Z"/><polygon class="cls-9" points="277.88 341.61 258.83 341.13 260.11 334.36 279.28 335.8 277.88 341.61"/><path class="cls-7" d="M288.06,178.07s-7,53.5-22.08,83.89c-12.19,24.56-44.72,59.51-44.72,59.51l-8.32-8.57s22-38,31-54.3c22.21-40,2.52-75.84,17.58-88Z"/><polygon class="cls-9" points="222.1 322.61 211.37 312.15 214.93 307.31 226.63 319.4 222.1 322.61"/><path class="cls-7" d="M261.6,168.49l-2.37,2.61c-.18.21,0,.52.42.63l35.59,9.86c.31.08.6,0,.67-.19l1.15-3c.08-.2-.13-.46-.47-.55l-34.36-9.51A.66.66,0,0,0,261.6,168.49Z"/><path class="cls-13" d="M261.6,168.49l-2.37,2.61c-.18.21,0,.52.42.63l35.59,9.86c.31.08.6,0,.67-.19l1.15-3c.08-.2-.13-.46-.47-.55l-34.36-9.51A.66.66,0,0,0,261.6,168.49Z"/><path class="cls-7" d="M265.16,173.61l-.92-.25c-.19-.05-.3-.19-.26-.3l1.53-3.83c0-.11.23-.16.41-.11l.92.26c.19.05.3.18.25.29l-1.52,3.83C265.53,173.61,265.34,173.66,265.16,173.61Z"/><path class="cls-7" d="M292.56,181.2l-.92-.26c-.18-.05-.29-.18-.25-.29l1.53-3.83c0-.11.23-.16.41-.11l.92.25c.18,0,.3.19.25.3L293,181.09A.36.36,0,0,1,292.56,181.2Z"/><path class="cls-7" d="M278.86,177.4l-.92-.25c-.18-.05-.3-.18-.25-.3l1.52-3.82c.05-.12.23-.17.42-.11l.92.25c.18.05.29.18.25.3l-1.53,3.82C279.23,177.4,279,177.46,278.86,177.4Z"/><path class="cls-9" d="M291.7,99c0,.7-.3,1.28-.75,1.31s-.86-.52-.9-1.22.29-1.28.75-1.31S291.66,98.34,291.7,99Z"/><path class="cls-9" d="M283.81,99.5c0,.7-.3,1.29-.75,1.31s-.86-.51-.9-1.21.29-1.29.75-1.32S283.77,98.8,283.81,99.5Z"/><path class="cls-9" d="M283.11,98.31l-1.7-.38S282.35,99.19,283.11,98.31Z"/><path class="cls-14" d="M286,100.58a18.75,18.75,0,0,1-2.23,4.6,3,3,0,0,0,2.51.32Z"/><path class="cls-9" d="M290.14,107.87a6.76,6.76,0,0,1-1.27.2.18.18,0,0,1-.18-.16.17.17,0,0,1,.16-.18,5.58,5.58,0,0,0,4.41-2.44.17.17,0,0,1,.23-.07.18.18,0,0,1,.07.24A5.68,5.68,0,0,1,290.14,107.87Z"/><path class="cls-9" d="M294.32,93.94a.34.34,0,0,1-.33-.09,3.27,3.27,0,0,0-2.87-1,.35.35,0,0,1-.4-.27.33.33,0,0,1,.26-.4,4,4,0,0,1,3.49,1.16.34.34,0,0,1,0,.48A.39.39,0,0,1,294.32,93.94Z"/><path class="cls-9" d="M280.37,95a.32.32,0,0,1-.34,0,.33.33,0,0,1-.07-.48,4,4,0,0,1,3.26-1.7.35.35,0,0,1,.32.36.35.35,0,0,1-.36.33,3.29,3.29,0,0,0-2.68,1.42A.28.28,0,0,1,280.37,95Z"/><path class="cls-10" d="M270.36,131.18c-.87,1.32-1.66,2.37-2.54,3.49s-1.77,2.17-2.68,3.22a76.76,76.76,0,0,1-5.89,5.94,61.52,61.52,0,0,1-6.54,5.27c-1.12.84-2.34,1.58-3.52,2.34l-1.84,1.06-.93.52a11.21,11.21,0,0,1-1.2.59,10.38,10.38,0,0,1-5.92.78,11.21,11.21,0,0,1-5.14-2.44,17.83,17.83,0,0,1-3.26-3.59,28.79,28.79,0,0,1-2.25-3.81,58.5,58.5,0,0,1-4.89-15.89l4-.92c.83,2.38,1.76,4.84,2.81,7.16a48.12,48.12,0,0,0,3.47,6.66,17.27,17.27,0,0,0,4.33,5,4.09,4.09,0,0,0,2,.81,3.39,3.39,0,0,0,1.82-.44,5.35,5.35,0,0,0,.57-.33l.77-.51,1.56-1c1-.75,2-1.43,3-2.22,2-1.52,3.84-3.2,5.67-4.92s3.54-3.58,5.18-5.48c.83-.95,1.64-1.92,2.42-2.89s1.57-2,2.19-2.9Z"/><path class="cls-10" d="M228.56,131.42l.88-9.33-8.38,3.44s1,4.69,4.19,6.36Z"/><polygon class="cls-10" points="226.76 117.06 220.27 115.65 221.06 125.53 229.44 122.09 226.76 117.06"/><path class="cls-9" d="M269.57,118.29c-4.36,0-14.89,16.68-14.89,16.68l7.44,7.7s14-9.44,14.54-15C277.15,122.88,275.14,118.34,269.57,118.29Z"/><path class="cls-11" d="M269.57,118.29c-4.36,0-14.89,16.68-14.89,16.68l7.44,7.7s14-9.44,14.54-15C277.15,122.88,275.14,118.34,269.57,118.29Z"/><path class="cls-7" d="M262.8,143h0a.8.8,0,0,1-1.13,0l-7.5-7.36a.79.79,0,0,1,0-1.13h0a.79.79,0,0,1,1.13,0l7.5,7.36A.81.81,0,0,1,262.8,143Z"/><path class="cls-7" d="M215.74,330.83a1.24,1.24,0,0,0,.75-.29.67.67,0,0,0,.3-.6c-.09-1.09-2.84-2.56-3.15-2.72a.16.16,0,0,0-.19,0,.17.17,0,0,0-.06.18c.31,1.1,1,3,2,3.35A1,1,0,0,0,215.74,330.83Zm-1.9-3.11c.94.53,2.55,1.58,2.6,2.25a.32.32,0,0,1-.15.3.84.84,0,0,1-.78.18C214.93,330.25,214.31,329.24,213.84,327.72Z"/><path class="cls-7" d="M216.16,328.15a2,2,0,0,0,1.24-.31.67.67,0,0,0,.15-.84,1,1,0,0,0-.64-.61c-1.17-.41-3.34.78-3.44.83a.18.18,0,0,0-.08.15.16.16,0,0,0,.08.15A6.16,6.16,0,0,0,216.16,328.15Zm.17-1.51a1.41,1.41,0,0,1,.47.07.73.73,0,0,1,.44.42c.1.26,0,.38-.06.45-.51.43-2.32.19-3.25-.21A6.46,6.46,0,0,1,216.33,326.64Z"/><path class="cls-7" d="M272.88,352.54a3.34,3.34,0,0,0,2-.48,1.27,1.27,0,0,0,.51-1,.58.58,0,0,0-.25-.53c-.93-.63-4.67,1.09-5.09,1.29a.18.18,0,0,0-.1.17.16.16,0,0,0,.14.15A13.33,13.33,0,0,0,272.88,352.54Zm1.65-1.77a.68.68,0,0,1,.41.09c.05,0,.1.08.1.22a.91.91,0,0,1-.38.71c-.84.64-2.89.37-4,.16A13.14,13.14,0,0,1,274.53,350.77Z"/><path class="cls-7" d="M270.11,352.19l.07,0c1.12-.46,3.47-2.35,3.35-3.28,0-.2-.17-.45-.68-.51-2-.24-2.87,3.44-2.9,3.6a.16.16,0,0,0,.05.17A.21.21,0,0,0,270.11,352.19Zm2.56-3.48h.14c.35.05.37.18.38.22.08.6-1.6,2.14-2.82,2.77C270.62,350.85,271.38,348.71,272.67,348.71Z"/><path class="cls-9" d="M291,97.85l-1.7-.39S290.24,98.72,291,97.85Z"/></g><g id="Smartphone"><path class="cls-7" d="M114.3,356.75l113.1-9.88a14,14,0,0,0,12.69-15.12L216.52,62a14,14,0,0,0-15.13-12.69L88.3,59.15A14,14,0,0,0,75.6,74.27L99.18,344.06A14,14,0,0,0,114.3,356.75Z"/><path class="cls-7" d="M84.09,153.93h0a4,4,0,0,0,3.62-4.3L84.59,114a4,4,0,0,0-4.3-3.61h0a4,4,0,0,0-3.61,4.3l3.11,35.63A4,4,0,0,0,84.09,153.93Z"/><rect class="cls-9" x="218.06" y="98.09" width="7.29" height="27.72" rx="2.95" transform="translate(452.32 204.16) rotate(175)"/><rect class="cls-9" x="221.25" y="134.6" width="7.29" height="27.72" rx="2.95" transform="translate(461.87 276.78) rotate(175)"/><path class="cls-9" d="M116.68,356.55l113.1-9.89a14,14,0,0,0,12.69-15.12L218.9,61.75a14,14,0,0,0-15.13-12.69L90.67,58.94A14,14,0,0,0,78,74.07l23.57,269.78A14,14,0,0,0,116.68,356.55Z"/><path class="cls-15" d="M105.55,339.73l132.28-11.56a2.61,2.61,0,0,0,2.37-2.83L217.78,68.73A2.61,2.61,0,0,0,215,66.36L82.67,77.92a2.61,2.61,0,0,0-2.38,2.83l22.42,256.61A2.62,2.62,0,0,0,105.55,339.73Z"/><polygon class="cls-16" points="197.49 67.89 180.87 333.15 153.22 335.57 169.84 70.3 197.49 67.89"/><rect class="cls-17" x="132.59" y="60.59" width="30.73" height="3.53" rx="1.19" transform="translate(-4.87 13.12) rotate(-4.99)"/><path class="cls-7" d="M135.59,162.16H273.2a13.55,13.55,0,0,1,13.5,13.5v67.49a13.54,13.54,0,0,1-13.5,13.5H225.58l-21.19,21.19L183.2,256.65H135.59a13.54,13.54,0,0,1-13.5-13.5V175.66A13.55,13.55,0,0,1,135.59,162.16Z"/><path class="cls-18" d="M135.59,162.16H273.2a13.55,13.55,0,0,1,13.5,13.5v67.49a13.54,13.54,0,0,1-13.5,13.5H225.58l-21.19,21.19L183.2,256.65H135.59a13.54,13.54,0,0,1-13.5-13.5V175.66A13.55,13.55,0,0,1,135.59,162.16Z"/><path class="cls-5" d="M144.41,185.56v47.7a7,7,0,0,0,6.91,7.06H257.47a7,7,0,0,0,6.9-7.06v-47.7a7,7,0,0,0-.5-2.64,6.92,6.92,0,0,0-6.4-4.42H151.32a7.06,7.06,0,0,0-6.91,7.06Z"/><path class="cls-19" d="M144.92,182.92l51.32,22.35a20.38,20.38,0,0,0,16.31,0l51.32-22.35a6.92,6.92,0,0,0-6.4-4.42H151.32A6.91,6.91,0,0,0,144.92,182.92Z"/><circle class="cls-20" cx="132.71" cy="168.16" r="20.52" transform="translate(-80.03 143.1) rotate(-45)"/><path class="cls-5" d="M136.67,180.67h-4.78v-18a16.49,16.49,0,0,1-6.17,3.62V162a13.76,13.76,0,0,0,4.06-2.32,8.84,8.84,0,0,0,3-4h3.88Z"/><path class="cls-7" d="M248.16,41a3,3,0,0,1-2.94-2.53A34.42,34.42,0,0,0,206.09,9.54a3,3,0,0,1-.89-5.89,40.39,40.39,0,0,1,45.91,33.89,3,3,0,0,1-2.5,3.39A3.4,3.4,0,0,1,248.16,41Z"/><path class="cls-7" d="M233.38,43.19a3,3,0,0,1-2.94-2.53,19.47,19.47,0,0,0-22.13-16.34,3,3,0,0,1-.88-5.89,25.42,25.42,0,0,1,28.89,21.34,3,3,0,0,1-2.5,3.39Z"/><path class="cls-7" d="M218.59,45.41a3,3,0,0,1-2.94-2.53,4.49,4.49,0,0,0-5.11-3.78,3,3,0,1,1-.89-5.89A10.46,10.46,0,0,1,221.54,42a3,3,0,0,1-2.5,3.39Z"/></g></svg>