<svg xmlns="http://www.w3.org/2000/svg" viewBox="0 0 500 500"><defs><style>.cls-1{fill:#00558c;}.cls-13,.cls-2{fill:#3c142d;}.cls-12,.cls-2{opacity:0.33;}.cls-3{fill:#0091c8;}.cls-4{font-size:21.06px;}.cls-21,.cls-4,.cls-6,.cls-9{fill:#fff;}.cls-4,.cls-6{font-family:Dosis-Bold, Dosis Bold;font-weight:700;}.cls-5{letter-spacing:-0.08em;}.cls-6{font-size:15.89px;}.cls-7{fill:#ff8291;}.cls-8{fill:#ff6473;}.cls-9{font-size:14px;font-family:Dosis-ExtraBold, Dosis ExtraBold;font-weight:800;}.cls-10{letter-spacing:-0.03em;}.cls-11,.cls-41,.cls-42,.cls-43{fill:none;}.cls-11,.cls-42{stroke:#fff;}.cls-11,.cls-42,.cls-43{stroke-linecap:round;}.cls-11{stroke-linejoin:round;stroke-width:2px;}.cls-14{fill:#6ee1ff;}.cls-15{fill:#41b4e6;}.cls-16{letter-spacing:-0.01em;}.cls-17{letter-spacing:-0.08em;}.cls-18{letter-spacing:0em;}.cls-19{fill:#c8e6eb;}.cls-20{fill:#a5c8cd;}.cls-22{fill:#c8d264;}.cls-23{fill:#aac85a;}.cls-24{fill:#dfe4a4;}.cls-25{letter-spacing:-0.01em;}.cls-26{letter-spacing:-0.08em;}.cls-27{letter-spacing:0em;}.cls-28{fill:#82be50;}.cls-29{fill:#ffe678;}.cls-30{fill:#fac855;}.cls-31{letter-spacing:0em;}.cls-32{fill:#ffaa50;}.cls-33{fill:#39ae96;}.cls-34{fill:#1c9585;}.cls-35{fill:#55c7a6;}.cls-36{fill:#177d74;}.cls-37{fill:#e16450;}.cls-38{fill:#ff9669;}.cls-39{fill:#ff7350;}.cls-40{fill:#ffcd9b;}.cls-41,.cls-43{stroke:#d2f0ff;}.cls-41,.cls-42,.cls-43{stroke-miterlimit:10;stroke-width:2.34px;}.cls-44{fill:#453faa;}.cls-45{fill:#827ddc;}.cls-46{fill:#6e64c3;}.cls-47{letter-spacing:-0.08em;}.cls-48{fill:#54b5b7;}.cls-49{fill:#78e9e1;}.cls-50{fill:#5fd2d0;}.cls-51{fill:#b6fff6;}.cls-52{letter-spacing:-0.08em;}</style></defs><g id="BACKGROUND"><rect class="cls-1" width="500" height="500" transform="translate(0 500) rotate(-90)"/></g><g id="OBJECTS"><path class="cls-2" d="M431.33,150.72,420.19,58.05h0l-2-16.78a10.24,10.24,0,0,0-11.37-8.94l-83,10a10.23,10.23,0,0,0-8.93,11.37l2,16.78h0L328,163.13a10.24,10.24,0,0,0,11.37,8.94l83-10A10.23,10.23,0,0,0,431.33,150.72Z"/><path class="cls-2" d="M432.48,328.65h-84.4a10.18,10.18,0,0,0-10.18,10.18v97.49a10.18,10.18,0,0,0,10.18,10.18h84.4a10.18,10.18,0,0,0,10.18-10.18V338.83A10.18,10.18,0,0,0,432.48,328.65Z"/><path class="cls-2" d="M290.94,185.23H211.48a11.72,11.72,0,0,0-11.72,11.71v98.35l23.7,21.82h67.48a11.71,11.71,0,0,0,11.71-11.71V196.94A11.71,11.71,0,0,0,290.94,185.23Z"/><path class="cls-2" d="M176.41,286.55l-8-80h0l-1.68-16.68a10.74,10.74,0,0,0-.41-2.06,10.35,10.35,0,0,0-1.92-3.53c-.22-.25-.44-.5-.68-.73a10.49,10.49,0,0,0-3.29-2.2,10.26,10.26,0,0,0-5-.75L58.7,190.34a10.5,10.5,0,0,0-2.05.42,10.12,10.12,0,0,0-1.88.8,10.41,10.41,0,0,0-1.65,1.12c-.26.22-.5.44-.74.68a10.84,10.84,0,0,0-1.25,1.53,10.25,10.25,0,0,0-1.54,3.68,10.4,10.4,0,0,0-.16,3.11l9.72,96.66a10.36,10.36,0,0,0,11.34,9.27l96.65-9.72A10.36,10.36,0,0,0,176.41,286.55Z"/><path class="cls-2" d="M301.28,327.7H203.79a10.18,10.18,0,0,0-10.18,10.18v97.49a10.18,10.18,0,0,0,10.18,10.18h84l23.69-21.82V337.88A10.18,10.18,0,0,0,301.28,327.7Z"/><path class="cls-2" d="M440,195.3V194a8.72,8.72,0,0,0-8.09-8.69v-3.62a7.41,7.41,0,0,0-14.81,0v3.59h2.34v-3.59a5.07,5.07,0,1,1,10.13,0v3.59H338.36a8.71,8.71,0,0,0-8.72,8.72V294.36a8.71,8.71,0,0,0,4.37,7.55,8.73,8.73,0,0,0,8.46,6.63h93.75a8.72,8.72,0,0,0,8.72-8.72V203.15A8.71,8.71,0,0,0,440,195.3Z"/><path class="cls-2" d="M170,326.3a9.51,9.51,0,0,0-6.66-6.09v-3.89a7.41,7.41,0,0,0-14.81,0v3.59h2.34v-3.59a5.07,5.07,0,0,1,10.13,0v3.6H62.2a9.5,9.5,0,0,0-9.5,9.5v98.85a9.49,9.49,0,0,0,4.95,8.34,9.51,9.51,0,0,0,8.85,6.06h97.33a9.5,9.5,0,0,0,9.5-9.5V333.5A9.45,9.45,0,0,0,170,326.3Z"/><path class="cls-2" d="M103.26,138.87a9.83,9.83,0,0,1-8.51,4.89L0,148.78V58.71l94.75-8.33a9.84,9.84,0,0,1,8.51,4.9l21.41,36.85a9.86,9.86,0,0,1,0,9.88Z"/><path class="cls-2" d="M279.3,51.26a10.57,10.57,0,0,0-8.62-4.44h-4.33V43.24a7.41,7.41,0,1,0-14.81,0v3.58H174.06a10.62,10.62,0,0,0-10.62,10.62v96.62a10.57,10.57,0,0,0,2.75,7.11,10.63,10.63,0,0,0,10.19,7.64h97.7a10.62,10.62,0,0,0,10.61-10.62V60.49A10.59,10.59,0,0,0,279.3,51.26Zm-25.42-8a5.07,5.07,0,0,1,10.14,0v3.58H253.88Z"/><path class="cls-3" d="M103.26,135.87a9.83,9.83,0,0,1-8.51,4.89H0V47.38H94.75a9.84,9.84,0,0,1,8.51,4.9l21.41,36.85a9.86,9.86,0,0,1,0,9.88Z"/><text class="cls-4" transform="translate(31 92.92)">WEEK<tspan class="cls-5" x="49.94" y="0">L</tspan><tspan x="58.11" y="0">Y</tspan></text><text class="cls-6" transform="translate(31 108.65)">SCHEDULE</text><rect class="cls-7" x="334.9" y="325.65" width="104.76" height="117.85" rx="10.18"/><path class="cls-8" d="M345.08,325.65h84.4a10.18,10.18,0,0,1,10.18,10.18v16.95a0,0,0,0,1,0,0H334.9a0,0,0,0,1,0,0V335.83A10.18,10.18,0,0,1,345.08,325.65Z"/><text class="cls-9" transform="translate(340.25 346.69)"><tspan class="cls-10">T</tspan><tspan x="6.58" y="0">O DO LIST</tspan></text><rect class="cls-8" x="350.96" y="363.67" width="16.21" height="16.21" rx="2.52"/><rect class="cls-8" x="350.96" y="388.93" width="16.21" height="16.21" rx="2.52"/><rect class="cls-8" x="350.96" y="414.18" width="16.21" height="16.21" rx="2.52"/><polyline class="cls-11" points="367.82 393.08 360.21 400.69 356.04 396.53"/><polyline class="cls-11" points="367.82 367.83 360.21 375.44 356.04 371.27"/><line class="cls-11" x1="355.28" y1="418.5" x2="362.86" y2="426.08"/><line class="cls-11" x1="362.86" y1="418.5" x2="355.28" y2="426.08"/><g class="cls-12"><rect class="cls-13" x="318.07" y="37.86" width="104.06" height="130.69" rx="10.22" transform="translate(-9.67 44.89) rotate(-6.85)"/></g><rect class="cls-14" x="318.07" y="33.86" width="104.06" height="130.69" rx="10.22" transform="translate(-9.19 44.86) rotate(-6.85)"/><path class="cls-15" d="M322.11,34.23h83.61a10.22,10.22,0,0,1,10.22,10.22v16.9a0,0,0,0,1,0,0H311.89a0,0,0,0,1,0,0V44.45A10.22,10.22,0,0,1,322.11,34.23Z" transform="translate(-3.1 43.76) rotate(-6.85)"/><text class="cls-9" transform="matrix(0.99, -0.12, 0.12, 0.99, 319.24, 62.24)">THURS<tspan class="cls-16" x="39.58" y="0">D</tspan><tspan class="cls-17" x="48.71" y="0">A</tspan><tspan class="cls-18" x="56.17" y="0">Y</tspan></text><path class="cls-15" d="M400,77.13l-70.91,8.52a3.74,3.74,0,0,1-4.17-3.26h0a3.74,3.74,0,0,1,3.27-4.16l70.92-8.53A3.75,3.75,0,0,1,403.25,73h0A3.74,3.74,0,0,1,400,77.13Z"/><path class="cls-15" d="M401.92,93.23,331,101.75a3.74,3.74,0,0,1-4.16-3.27h0a3.74,3.74,0,0,1,3.27-4.16L401,85.8a3.75,3.75,0,0,1,4.17,3.27h0A3.75,3.75,0,0,1,401.92,93.23Z"/><rect class="cls-15" x="328.49" y="106.13" width="78.91" height="7.48" transform="translate(-10.48 44.68) rotate(-6.85)"/><path class="cls-15" d="M384.25,149.68l-46.82,5.62a3.74,3.74,0,0,1-4.16-3.26h0a3.75,3.75,0,0,1,3.27-4.17l46.82-5.62a3.74,3.74,0,0,1,4.16,3.27h0A3.74,3.74,0,0,1,384.25,149.68Z"/><path class="cls-3" d="M408,46.21a5.85,5.85,0,1,1-5.85-5.84A5.85,5.85,0,0,1,408,46.21Z"/><path class="cls-19" d="M407,44.34a5.85,5.85,0,1,1-5.84-5.84A5.84,5.84,0,0,1,407,44.34Z"/><circle class="cls-20" cx="399.42" cy="42.4" r="4.17"/><path class="cls-21" d="M401.15,38.24a4.17,4.17,0,1,1-5.9,0A4.16,4.16,0,0,1,401.15,38.24Z"/><path class="cls-22" d="M220.46,314.11h67.48a11.71,11.71,0,0,0,11.71-11.71V193.94a11.71,11.71,0,0,0-11.71-11.71H208.48a11.72,11.72,0,0,0-11.72,11.71v98.35Z"/><path class="cls-23" d="M196.76,182.23H299.65a0,0,0,0,1,0,0v15.41a11.71,11.71,0,0,1-11.71,11.71H208.48a11.71,11.71,0,0,1-11.71-11.71V182.23A0,0,0,0,1,196.76,182.23Z" transform="translate(496.41 391.58) rotate(180)"/><path class="cls-23" d="M215.51,293.07l-18.75-.78,23.7,21.82L222,300.63A6.81,6.81,0,0,0,215.51,293.07Z"/><path class="cls-24" d="M212.28,291.09l-15.52,1.2,23.7,21.82V298.66A7.6,7.6,0,0,0,212.28,291.09Z"/><text class="cls-9" transform="translate(203.89 203.12)">TUES<tspan class="cls-25" x="29.81" y="0">D</tspan><tspan class="cls-26" x="38.93" y="0">A</tspan><tspan class="cls-27" x="46.4" y="0">Y</tspan></text><path class="cls-23" d="M285.25,231.65H213.82a3.74,3.74,0,0,1-3.74-3.75h0a3.74,3.74,0,0,1,3.74-3.74h71.43A3.75,3.75,0,0,1,289,227.9h0A3.75,3.75,0,0,1,285.25,231.65Z"/><path class="cls-23" d="M285.25,247.86H213.82a3.74,3.74,0,0,1-3.74-3.74h0a3.73,3.73,0,0,1,3.74-3.74h71.43a3.74,3.74,0,0,1,3.74,3.74h0A3.75,3.75,0,0,1,285.25,247.86Z"/><path class="cls-23" d="M262.82,264.07h-49a3.73,3.73,0,0,1-3.74-3.74h0a3.73,3.73,0,0,1,3.74-3.74h49a3.74,3.74,0,0,1,3.74,3.74h0A3.74,3.74,0,0,1,262.82,264.07Z"/><path class="cls-28" d="M290,195.48a5.85,5.85,0,1,1-5.85-5.85A5.85,5.85,0,0,1,290,195.48Z"/><path class="cls-19" d="M289,193.61a5.85,5.85,0,1,1-5.84-5.85A5.84,5.84,0,0,1,289,193.61Z"/><path class="cls-20" d="M284.37,188.71a4.17,4.17,0,1,1-5.89,0A4.17,4.17,0,0,1,284.37,188.71Z"/><path class="cls-21" d="M283.16,187.5a4.17,4.17,0,1,1-5.9,0A4.17,4.17,0,0,1,283.16,187.5Z"/><rect class="cls-29" x="49.7" y="182.23" width="117.85" height="117.85" rx="10.36" transform="translate(-23.57 12.07) rotate(-5.74)"/><path class="cls-30" d="M55.52,182.46h97.14A10.36,10.36,0,0,1,163,192.81v16.77a0,0,0,0,1,0,0H45.17a0,0,0,0,1,0,0V192.81a10.36,10.36,0,0,1,10.36-10.36Z" transform="translate(-19.08 11.39) rotate(-5.74)"/><text class="cls-9" transform="translate(52.83 208.61) rotate(-5.74)">WEDNES<tspan class="cls-25" x="51.06" y="0">D</tspan><tspan class="cls-26" x="60.19" y="0">A</tspan><tspan class="cls-31" x="67.65" y="0">Y</tspan></text><path class="cls-30" d="M146.77,229.49l-77.85,7.82A3.73,3.73,0,0,1,64.83,234h0a3.73,3.73,0,0,1,3.35-4.09L146,222a3.74,3.74,0,0,1,4.1,3.35h0A3.74,3.74,0,0,1,146.77,229.49Z"/><path class="cls-30" d="M148.39,245.62l-77.84,7.82a3.74,3.74,0,0,1-4.1-3.35h0A3.73,3.73,0,0,1,69.8,246l77.85-7.83a3.74,3.74,0,0,1,4.09,3.35h0A3.74,3.74,0,0,1,148.39,245.62Z"/><path class="cls-30" d="M150,261.75l-77.85,7.82a3.74,3.74,0,0,1-4.1-3.34h0a3.74,3.74,0,0,1,3.35-4.1l77.85-7.83a3.74,3.74,0,0,1,4.09,3.35h0A3.74,3.74,0,0,1,150,261.75Z"/><path class="cls-30" d="M125.4,280.52l-51.61,5.19a3.75,3.75,0,0,1-4.1-3.35h0a3.75,3.75,0,0,1,3.35-4.1l51.61-5.19a3.75,3.75,0,0,1,4.1,3.35h0A3.74,3.74,0,0,1,125.4,280.52Z"/><path class="cls-32" d="M154.45,190.94a5.85,5.85,0,1,1-5.85-5.84A5.85,5.85,0,0,1,154.45,190.94Z"/><path class="cls-19" d="M153.51,189.07a5.85,5.85,0,1,1-5.84-5.84A5.84,5.84,0,0,1,153.51,189.07Z"/><path class="cls-20" d="M148.86,184.18a4.16,4.16,0,1,1-5.89,0A4.16,4.16,0,0,1,148.86,184.18Z"/><path class="cls-21" d="M147.65,183a4.17,4.17,0,1,1-5.9,0A4.17,4.17,0,0,1,147.65,183Z"/><path class="cls-33" d="M284.77,442.55h-84a10.18,10.18,0,0,1-10.18-10.18V334.88a10.18,10.18,0,0,1,10.18-10.18h97.49a10.18,10.18,0,0,1,10.18,10.18v85.85Z"/><path class="cls-34" d="M200.79,324.7h97.49a10.18,10.18,0,0,1,10.18,10.18v16.95a0,0,0,0,1,0,0H190.61a0,0,0,0,1,0,0V334.88A10.18,10.18,0,0,1,200.79,324.7Z"/><path class="cls-34" d="M287.83,421.59l20.63-.86-23.69,21.82L283,427.19A5.05,5.05,0,0,1,287.83,421.59Z"/><path class="cls-35" d="M289.22,422.25l19.24-1.52-23.69,21.82V427.07A4.84,4.84,0,0,1,289.22,422.25Z"/><text class="cls-9" transform="translate(197.96 345.75)">SUN<tspan class="cls-25" x="25.17" y="0">D</tspan><tspan class="cls-17" x="34.3" y="0">A</tspan><tspan x="41.76" y="0">Y</tspan></text><path class="cls-34" d="M272.39,374.57h-62a3.74,3.74,0,0,1-3.74-3.74h0a3.75,3.75,0,0,1,3.74-3.74h62a3.75,3.75,0,0,1,3.74,3.74h0A3.74,3.74,0,0,1,272.39,374.57Z"/><path class="cls-34" d="M288.65,390.79H210.41a3.75,3.75,0,0,1-3.74-3.75h0a3.75,3.75,0,0,1,3.74-3.74h78.24A3.75,3.75,0,0,1,292.4,387h0A3.75,3.75,0,0,1,288.65,390.79Z"/><path class="cls-34" d="M288.65,407H210.41a3.75,3.75,0,0,1-3.74-3.74h0a3.74,3.74,0,0,1,3.74-3.74h78.24a3.74,3.74,0,0,1,3.75,3.74h0A3.75,3.75,0,0,1,288.65,407Z"/><path class="cls-34" d="M262.29,423.21H210.41a3.74,3.74,0,0,1-3.74-3.74h0a3.74,3.74,0,0,1,3.74-3.74h51.88a3.74,3.74,0,0,1,3.74,3.74h0A3.74,3.74,0,0,1,262.29,423.21Z"/><circle class="cls-36" cx="293.51" cy="338.94" r="5.85"/><path class="cls-19" d="M298.42,337.07a5.85,5.85,0,1,1-5.85-5.85A5.84,5.84,0,0,1,298.42,337.07Z"/><path class="cls-20" d="M293.77,332.17a4.17,4.17,0,1,1-5.9,0A4.17,4.17,0,0,1,293.77,332.17Z"/><path class="cls-21" d="M292.55,331a4.17,4.17,0,1,1-5.89,0A4.17,4.17,0,0,1,292.55,331Z"/><rect class="cls-37" x="161.76" y="45.88" width="118.93" height="118.93" rx="10.61"/><path class="cls-38" d="M253.6,160.67H170.06a10.62,10.62,0,0,1-10.62-10.61V53.44a10.62,10.62,0,0,1,10.62-10.62h96.62A10.62,10.62,0,0,1,277.3,53.44v85.41Z"/><path class="cls-39" d="M170.06,42.82h96.62A10.61,10.61,0,0,1,277.3,53.44V69.95a0,0,0,0,1,0,0H159.44a0,0,0,0,1,0,0V53.44A10.61,10.61,0,0,1,170.06,42.82Z"/><path class="cls-39" d="M256,139.74l21.26-.89-23.7,21.82-1.8-16A4.45,4.45,0,0,1,256,139.74Z"/><path class="cls-40" d="M259.08,140.29l18.22-1.44-23.7,21.82V146.21A5.94,5.94,0,0,1,259.08,140.29Z"/><text class="cls-9" transform="translate(167.92 65.35)">MON<tspan class="cls-25" x="30.11" y="0">D</tspan><tspan class="cls-26" x="39.24" y="0">A</tspan><tspan x="46.7" y="0">Y</tspan></text><path class="cls-39" d="M251.61,91.77H173.37A3.73,3.73,0,0,1,169.63,88h0a3.73,3.73,0,0,1,3.74-3.74h78.24A3.73,3.73,0,0,1,255.35,88h0A3.73,3.73,0,0,1,251.61,91.77Z"/><path class="cls-39" d="M251.61,108H173.37a3.73,3.73,0,0,1-3.74-3.74h0a3.74,3.74,0,0,1,3.74-3.74h78.24a3.74,3.74,0,0,1,3.74,3.74h0A3.73,3.73,0,0,1,251.61,108Z"/><rect class="cls-39" x="169.63" y="116.71" width="85.72" height="7.48" rx="3.74"/><path class="cls-39" d="M225.24,140.41H173.37a3.74,3.74,0,0,1-3.74-3.74h0a3.73,3.73,0,0,1,3.74-3.74h51.87a3.74,3.74,0,0,1,3.75,3.74h0A3.75,3.75,0,0,1,225.24,140.41Z"/><path class="cls-37" d="M260,45.88V62a3.2,3.2,0,1,1-6.4,0V50.67a1.17,1.17,0,1,0-2.33,0V62a5.53,5.53,0,0,0,11.06,0V45.88Z"/><path class="cls-41" d="M248.71,42.82V39.24A6.24,6.24,0,0,1,255,33h0a6.23,6.23,0,0,1,6.23,6.24V60a4.36,4.36,0,0,1-4.36,4.36h0A4.37,4.37,0,0,1,252.45,60v-8.5"/><path class="cls-42" d="M248.71,39.24A6.24,6.24,0,0,1,255,33h0"/><line class="cls-43" x1="252.45" y1="53.27" x2="252.45" y2="48.67"/><path class="cls-44" d="M330.75,191.43H433.22a8.72,8.72,0,0,1,8.72,8.72v96.67a8.72,8.72,0,0,1-8.72,8.72H339.47a8.72,8.72,0,0,1-8.72-8.72V191.43A0,0,0,0,1,330.75,191.43Z"/><rect class="cls-45" x="326.64" y="182.23" width="110.37" height="117.85" rx="8.72"/><path class="cls-46" d="M335.36,182.23h92.93a8.72,8.72,0,0,1,8.72,8.72v18.4a0,0,0,0,1,0,0H326.64a0,0,0,0,1,0,0v-18.4A8.72,8.72,0,0,1,335.36,182.23Z"/><text class="cls-9" transform="translate(332.62 203.12)">FRI<tspan class="cls-16" x="17.7" y="0">D</tspan><tspan class="cls-47" x="26.82" y="0">A</tspan><tspan class="cls-18" x="34.29" y="0">Y</tspan></text><path class="cls-46" d="M420.94,233.36H342.7a3.74,3.74,0,0,1-3.74-3.74h0a3.74,3.74,0,0,1,3.74-3.74h78.24a3.74,3.74,0,0,1,3.75,3.74h0A3.74,3.74,0,0,1,420.94,233.36Z"/><path class="cls-46" d="M420.94,249.57H342.7a3.74,3.74,0,0,1-3.74-3.74h0a3.75,3.75,0,0,1,3.74-3.74h78.24a3.75,3.75,0,0,1,3.75,3.74h0A3.74,3.74,0,0,1,420.94,249.57Z"/><path class="cls-46" d="M401.3,265.79H342.7A3.75,3.75,0,0,1,339,262h0a3.75,3.75,0,0,1,3.74-3.74h58.6A3.74,3.74,0,0,1,405,262h0A3.74,3.74,0,0,1,401.3,265.79Z"/><path class="cls-44" d="M426.59,185.28v16.09a3.2,3.2,0,0,1-6.4,0v-11.3a1.17,1.17,0,0,0-2.34,0v11.3a5.54,5.54,0,1,0,11.07,0V185.28Z"/><path class="cls-41" d="M415.28,182.23v-3.59a6.24,6.24,0,0,1,6.24-6.24h0a6.24,6.24,0,0,1,6.23,6.24v20.73a4.37,4.37,0,0,1-4.36,4.37h0a4.37,4.37,0,0,1-4.37-4.37v-8.49"/><path class="cls-42" d="M415.28,178.64a6.24,6.24,0,0,1,6.24-6.24h0"/><line class="cls-43" x1="419.02" y1="192.67" x2="419.02" y2="188.07"/><rect class="cls-48" x="54" y="321" width="116.33" height="118.67" rx="9.5"/><path class="cls-49" d="M143.86,434.77H59.2a9.5,9.5,0,0,1-9.5-9.5V326.42a9.5,9.5,0,0,1,9.5-9.5h98.86a9.5,9.5,0,0,1,9.5,9.5V413Z"/><path class="cls-50" d="M59.2,316.92h98.85a9.5,9.5,0,0,1,9.5,9.5V344a0,0,0,0,1,0,0H59.2a9.5,9.5,0,0,1-9.5-9.5v-8.12A9.5,9.5,0,0,1,59.2,316.92Z"/><path class="cls-50" d="M148.19,413.76l19.37-.81-23.7,21.82-1.59-14.1A6.22,6.22,0,0,1,148.19,413.76Z"/><path class="cls-51" d="M149.25,414.39,167.56,413l-23.7,21.82V420.23A5.85,5.85,0,0,1,149.25,414.39Z"/><text class="cls-9" transform="translate(57.38 339.21)">S<tspan class="cls-52" x="6.9" y="0">A</tspan><tspan x="14.39" y="0">TUR</tspan><tspan class="cls-25" x="37.94" y="0">D</tspan><tspan class="cls-17" x="47.07" y="0">A</tspan><tspan x="54.53" y="0">Y</tspan></text><path class="cls-50" d="M147.75,367.41H69.51a3.73,3.73,0,0,1-3.74-3.74h0a3.74,3.74,0,0,1,3.74-3.74h78.24a3.74,3.74,0,0,1,3.74,3.74h0A3.73,3.73,0,0,1,147.75,367.41Z"/><rect class="cls-50" x="65.77" y="376.14" width="85.72" height="7.48" rx="3.74"/><path class="cls-50" d="M147.75,399.84H69.51a3.74,3.74,0,0,1-3.74-3.74h0a3.73,3.73,0,0,1,3.74-3.74h78.24a3.73,3.73,0,0,1,3.74,3.74h0A3.74,3.74,0,0,1,147.75,399.84Z"/><path class="cls-50" d="M121.38,416.05H69.51a3.73,3.73,0,0,1-3.74-3.74h0a3.73,3.73,0,0,1,3.74-3.74h51.87a3.73,3.73,0,0,1,3.74,3.74h0A3.73,3.73,0,0,1,121.38,416.05Z"/><path class="cls-48" d="M158,320v16.1a3.2,3.2,0,0,1-6.39,0V324.75a1.17,1.17,0,1,0-2.34,0v11.31a5.54,5.54,0,0,0,11.07,0V320Z"/><path class="cls-41" d="M146.72,316.91v-3.59a6.23,6.23,0,0,1,6.23-6.23h0a6.23,6.23,0,0,1,6.24,6.23v20.74a4.37,4.37,0,0,1-4.37,4.36h0a4.36,4.36,0,0,1-4.36-4.36v-8.5"/><path class="cls-42" d="M146.72,313.32a6.23,6.23,0,0,1,6.23-6.23h0"/><line class="cls-43" x1="150.46" y1="327.35" x2="150.46" y2="322.75"/></g></svg>